<svg width="87" height="285" viewBox="0 0 87 285" fill="none" xmlns="http://www.w3.org/2000/svg">
<path d="M32.0044 266V248H39.0044V266C39.3378 267.667 40.0044 271.7 40.0044 274.5C40.0044 277.3 37.3378 278.667 36.0044 279C34.6711 279 31.9044 278.1 31.5044 274.5C31.1044 270.9 31.6711 267.333 32.0044 266Z" fill="white" stroke="#FF7724" stroke-width="2" stroke-linecap="round" stroke-linejoin="round"/>
<path d="M30.0044 279.5C29.6044 276.7 30.5044 273.333 31.0044 272C31.8377 273.833 33.5044 278 35.5044 278C37.5044 278 39.5044 273.833 40.0044 272C40.3378 273.5 40.9044 277.1 40.5044 279.5C40.1044 281.9 37.0044 283.5 35.5044 284C33.8377 283.667 30.4044 282.3 30.0044 279.5Z" fill="white" stroke="#FF7724" stroke-width="2" stroke-linecap="round" stroke-linejoin="round"/>
<path d="M48.0044 266V248H55.0044V266C55.3378 267.667 56.0044 271.7 56.0044 274.5C56.0044 277.3 53.3378 278.667 52.0044 279C50.6711 279 47.9044 278.1 47.5044 274.5C47.1044 270.9 47.6711 267.333 48.0044 266Z" fill="white" stroke="#FF7724" stroke-width="2" stroke-linecap="round" stroke-linejoin="round"/>
<path d="M46.0044 279.5C45.6044 276.7 46.5044 273.333 47.0044 272C47.8377 273.833 49.5044 278 51.5044 278C53.5044 278 55.5044 273.833 56.0044 272C56.3378 273.5 56.9044 277.1 56.5044 279.5C56.1044 281.9 53.0044 283.5 51.5044 284C49.8377 283.667 46.4044 282.3 46.0044 279.5Z" fill="white" stroke="#FF7724" stroke-width="2" stroke-linecap="round" stroke-linejoin="round"/>
<path d="M21.0591 61.9851C21.0591 51.9285 32.2804 48.3901 37.891 46.9003H52.4787C56.5932 47.459 65.3831 50.1407 67.6274 56.3981C70.4327 64.2199 61.9244 122.03 61.9244 126.5C61.9244 130.97 67.6274 166.147 67.6274 178C67.6274 195 67.4244 242 64.9244 262C59.8295 264.038 59.6572 262.659 52.9244 264C46.1916 265.341 47.5569 265.521 47.3699 264.962C41.0112 266.266 43.0758 266.044 37.6896 266.491C32.3034 266.938 31.0999 265.893 26.4244 264.962C22.9244 255 19.9714 229.633 21.0591 222.5C23.5361 206.257 25.3633 139.704 25.9244 133C26.4855 126.296 21.0591 67.0133 21.0591 61.9851Z" fill="#F0F0F0" stroke="#FF7724" stroke-width="2" stroke-linecap="round" stroke-linejoin="round"/>
<rect x="28.9244" y="110" width="32" height="21" fill="white" stroke="#FF7724" stroke-width="2"/>
<path d="M30.2292 49.8023C32.5205 74.7339 44.5555 106.679 40.9248 145.5C34.9708 209.162 25.0802 216.9 23.688 240.662C23.0807 240.578 22.4719 240.491 21.8675 240.399C18.0156 239.811 14.2588 239.081 11.9163 238.576C11.1101 238.623 10.4953 238.786 9.9873 238.959C9.70263 239.056 9.48115 239.145 9.21548 239.243C8.97574 239.331 8.69337 239.429 8.40304 239.48C8.0966 239.534 7.74619 239.543 7.37824 239.425C7.01289 239.308 6.70911 239.092 6.44873 238.825C5.96222 238.325 5.51729 237.524 5.01375 236.426C4.78081 235.918 4.67086 235.251 4.61898 234.531C4.56549 233.789 4.56898 232.891 4.61827 231.859C4.71695 229.795 5.0033 227.117 5.43304 223.928C6.29298 217.548 7.73843 209.028 9.44503 199.095C12.861 179.213 17.3355 153.615 20.3317 127.897C20.4943 126.502 20.5665 121.931 20.5805 115.685C20.5943 109.478 20.5511 101.704 20.4938 93.972C20.3796 78.5473 20.2075 63.207 20.3258 60.965C20.5853 56.0532 23.9109 52.9373 27.6705 50.9631C28.4998 50.5276 29.3613 50.1447 30.2292 49.8023Z" fill="white"/>
<path d="M30.2292 49.8023L31.2256 49.6989C31.197 49.3877 31.024 49.1096 30.758 48.9474C30.4921 48.7853 30.164 48.7579 29.8715 48.8733L30.2292 49.8023ZM40.9248 145.5L41.921 145.581V145.581L40.9248 145.5ZM23.688 240.662L23.5386 241.652C23.8167 241.691 24.0996 241.61 24.3181 241.431C24.5366 241.251 24.6704 240.989 24.6869 240.708L23.688 240.662ZM21.8675 240.399L21.7047 241.387L21.7047 241.387L21.8675 240.399ZM11.9163 238.576L12.1388 237.599C12.051 237.58 11.9608 237.573 11.8708 237.578L11.9163 238.576ZM9.9873 238.959L9.6739 238.014L9.67388 238.014L9.9873 238.959ZM9.21548 239.243L9.55173 240.18L9.55179 240.18L9.21548 239.243ZM8.40304 239.48L8.56444 240.465L8.56447 240.465L8.40304 239.48ZM7.37824 239.425L7.06252 240.377L7.06277 240.377L7.37824 239.425ZM6.44873 238.825L5.72717 239.526L5.7273 239.526L6.44873 238.825ZM5.01375 236.426L4.10313 236.851L4.10313 236.851L5.01375 236.426ZM4.61898 234.531L3.62099 234.615L3.62099 234.615L4.61898 234.531ZM4.61827 231.859L3.61884 231.824L3.61884 231.824L4.61827 231.859ZM5.43304 223.928L4.44144 223.807L4.44144 223.807L5.43304 223.928ZM9.44503 199.095L8.45894 198.938V198.938L9.44503 199.095ZM20.3317 127.897L21.3256 128.001L21.3256 128.001L20.3317 127.897ZM20.5805 115.685L21.581 115.675V115.675L20.5805 115.685ZM20.4938 93.972L21.4944 93.9524V93.9524L20.4938 93.972ZM20.3258 60.965L19.3266 60.9244L19.3266 60.9245L20.3258 60.965ZM27.6705 50.9631L27.2134 50.0797L27.2134 50.0797L27.6705 50.9631ZM30.2292 49.8023L29.2328 49.9056C30.3832 62.4226 33.99 76.779 36.8126 92.6293C39.6467 108.545 41.732 126.136 39.9285 145.419L40.9248 145.5L41.921 145.581C43.7483 126.043 41.6314 108.252 38.7829 92.2561C35.9229 76.1955 32.3665 62.1136 31.2256 49.6989L30.2292 49.8023ZM40.9248 145.5L39.9285 145.419C36.9567 177.195 33.0053 194.99 29.6283 207.8C26.2573 220.587 23.3929 228.605 22.6891 240.616L23.688 240.662L24.6869 240.708C25.3753 228.958 28.1523 221.225 31.5631 208.287C34.968 195.371 38.9388 177.467 41.921 145.581L40.9248 145.5ZM23.688 240.662L23.8374 239.672C23.2327 239.588 22.6286 239.502 22.0302 239.411L21.8675 240.399L21.7047 241.387C22.3151 241.48 22.9287 241.567 23.5386 241.652L23.688 240.662ZM21.8675 240.399L22.0302 239.411C18.2012 238.827 14.4645 238.101 12.1388 237.599L11.9163 238.576L11.6937 239.553C14.053 240.062 17.83 240.796 21.7047 241.387L21.8675 240.399ZM11.9163 238.576L11.8708 237.578C10.9508 237.631 10.2439 237.819 9.6739 238.014L9.9873 238.959L10.3007 239.904C10.7466 239.752 11.2694 239.614 11.9618 239.574L11.9163 238.576ZM9.9873 238.959L9.67388 238.014C9.37513 238.116 9.11612 238.218 8.87916 238.305L9.21548 239.243L9.55179 240.18C9.84618 240.071 10.0301 239.997 10.3007 239.904L9.9873 238.959ZM9.21548 239.243L8.87922 238.305C8.64399 238.392 8.43529 238.462 8.24162 238.496L8.40304 239.48L8.56447 240.465C8.95146 240.397 9.3075 240.27 9.55173 240.18L9.21548 239.243ZM8.40304 239.48L8.24165 238.496C8.04667 238.53 7.86762 238.528 7.69372 238.473L7.37824 239.425L7.06277 240.377C7.62475 240.557 8.14653 240.538 8.56444 240.465L8.40304 239.48ZM7.37824 239.425L7.69396 238.473C7.5203 238.417 7.34926 238.307 7.17015 238.123L6.44873 238.825L5.7273 239.526C6.06897 239.877 6.50548 240.199 7.06252 240.377L7.37824 239.425ZM6.44873 238.825L7.17029 238.123C6.81347 237.757 6.4273 237.098 5.92437 236.001L5.01375 236.426L4.10313 236.851C4.60727 237.951 5.11097 238.892 5.72717 239.526L6.44873 238.825ZM5.01375 236.426L5.92438 236.001C5.76707 235.657 5.66657 235.136 5.61697 234.448L4.61898 234.531L3.62099 234.615C3.67516 235.367 3.79454 236.178 4.10313 236.851L5.01375 236.426ZM4.61898 234.531L5.61698 234.448C5.56744 233.76 5.56941 232.905 5.6177 231.895L4.61827 231.859L3.61884 231.824C3.56856 232.876 3.56354 233.818 3.62099 234.615L4.61898 234.531ZM4.61827 231.859L5.6177 231.895C5.71432 229.874 5.99618 227.229 6.42463 224.05L5.43304 223.928L4.44144 223.807C4.01042 227.005 3.71958 229.717 3.61884 231.824L4.61827 231.859ZM5.43304 223.928L6.42463 224.05C7.28166 217.691 8.72364 209.19 10.4311 199.252L9.44503 199.095L8.45894 198.938C6.75322 208.865 5.30431 217.405 4.44144 223.807L5.43304 223.928ZM9.44503 199.095L10.4311 199.252C13.8461 179.377 18.3256 153.75 21.3256 128.001L20.3317 127.897L19.3379 127.793C16.3454 153.479 11.876 179.05 8.45894 198.938L9.44503 199.095ZM20.3317 127.897L21.3256 128.001C21.4965 126.533 21.5671 121.887 21.581 115.675L20.5805 115.685L19.5799 115.695C19.5659 121.975 19.492 126.47 19.3379 127.793L20.3317 127.897ZM20.5805 115.685L21.581 115.675C21.5949 109.463 21.5516 101.685 21.4944 93.9524L20.4938 93.972L19.4933 93.9915C19.5505 101.723 19.5938 109.494 19.5799 115.695L20.5805 115.685ZM20.4938 93.972L21.4944 93.9524C21.3798 78.4887 21.2088 63.2075 21.325 61.0054L20.3258 60.965L19.3266 60.9245C19.2062 63.2065 19.3793 78.6059 19.4933 93.9915L20.4938 93.972ZM20.3258 60.965L21.325 61.0055C21.5575 56.6049 24.5159 53.743 28.1276 51.8465L27.6705 50.9631L27.2134 50.0797C23.3058 52.1316 19.6132 55.5016 19.3266 60.9244L20.3258 60.965ZM27.6705 50.9631L28.1276 51.8465C28.9182 51.4314 29.7454 51.0633 30.587 50.7312L30.2292 49.8023L29.8715 48.8733C28.9772 49.2262 28.0815 49.6239 27.2134 50.0797L27.6705 50.9631Z" fill="#FF7724"/>
<path d="M57.765 49.8023C55.4738 74.7339 43.4387 106.679 47.0695 145.5C53.0234 209.162 62.914 216.9 64.3062 240.662C64.9136 240.578 65.5224 240.491 66.1268 240.399C69.9787 239.811 73.7355 239.081 76.078 238.576C76.8842 238.623 77.499 238.786 78.007 238.959C78.2916 239.056 78.5131 239.145 78.7788 239.243C79.0185 239.331 79.3009 239.429 79.5912 239.48C79.8977 239.534 80.2481 239.543 80.616 239.425C80.9814 239.308 81.2851 239.092 81.5455 238.825C82.032 238.325 82.477 237.524 82.9805 236.426C83.2134 235.918 83.3234 235.251 83.3753 234.531C83.4288 233.789 83.4253 232.891 83.376 231.859C83.2773 229.795 82.9909 227.117 82.5612 223.928C81.7013 217.548 80.2558 209.028 78.5492 199.095C75.1332 179.213 70.6588 153.615 67.6625 127.897C67.5 126.502 67.4278 121.931 67.4138 115.685C67.3999 109.478 67.4432 101.704 67.5004 93.972C67.6147 78.5473 67.7867 63.207 67.6684 60.965C67.4089 56.0533 64.0834 52.9373 60.3238 50.9631C59.4944 50.5276 58.633 50.1447 57.765 49.8023Z" fill="white"/>
<path d="M57.765 49.8023L56.7686 49.6989C56.7972 49.3877 56.9703 49.1096 57.2362 48.9475C57.5021 48.7853 57.8303 48.7579 58.1228 48.8733L57.765 49.8023ZM47.0695 145.5L46.0733 145.581V145.581L47.0695 145.5ZM64.3062 240.662L64.4556 241.652C64.1775 241.691 63.8946 241.61 63.6762 241.431C63.4577 241.251 63.3238 240.989 63.3074 240.708L64.3062 240.662ZM66.1268 240.399L66.2895 241.387L66.2895 241.387L66.1268 240.399ZM76.078 238.576L75.8554 237.599C75.9433 237.58 76.0334 237.573 76.1235 237.578L76.078 238.576ZM78.007 238.959L78.3204 238.014L78.3204 238.014L78.007 238.959ZM78.7788 239.243L78.4425 240.18L78.4425 240.18L78.7788 239.243ZM79.5912 239.48L79.4298 240.465L79.4298 240.465L79.5912 239.48ZM80.616 239.425L80.9317 240.377L80.9315 240.377L80.616 239.425ZM81.5455 238.825L82.2671 239.526L82.2669 239.526L81.5455 238.825ZM82.9805 236.426L83.8911 236.851L83.8911 236.851L82.9805 236.426ZM83.3753 234.531L84.3733 234.615L84.3733 234.615L83.3753 234.531ZM83.376 231.859L84.3754 231.824L84.3754 231.824L83.376 231.859ZM82.5612 223.928L83.5528 223.807L83.5528 223.807L82.5612 223.928ZM78.5492 199.095L79.5353 198.938V198.938L78.5492 199.095ZM67.6625 127.897L66.6687 128.001L66.6687 128.001L67.6625 127.897ZM67.4138 115.685L66.4132 115.675V115.675L67.4138 115.685ZM67.5004 93.972L66.4999 93.9525V93.9525L67.5004 93.972ZM67.6684 60.965L68.6676 60.9244L68.6676 60.9245L67.6684 60.965ZM60.3238 50.9631L60.7809 50.0797L60.7809 50.0797L60.3238 50.9631ZM57.765 49.8023L58.7614 49.9056C57.6111 62.4226 54.0043 76.779 51.1817 92.6293C48.3475 108.545 46.2623 126.136 48.0657 145.419L47.0695 145.5L46.0733 145.581C44.2459 126.043 46.3628 108.252 49.2113 92.2561C52.0714 76.1956 55.6277 62.1136 56.7686 49.6989L57.765 49.8023ZM47.0695 145.5L48.0657 145.419C51.0375 177.195 54.9889 194.99 58.3659 207.8C61.7369 220.587 64.6014 228.605 65.3051 240.616L64.3062 240.662L63.3074 240.708C62.6189 228.958 59.842 221.225 56.4311 208.287C53.0263 195.371 49.0554 177.467 46.0733 145.581L47.0695 145.5ZM64.3062 240.662L64.1569 239.672C64.7615 239.588 65.3656 239.502 65.9641 239.411L66.1268 240.399L66.2895 241.387C65.6792 241.48 65.0656 241.568 64.4556 241.652L64.3062 240.662ZM66.1268 240.399L65.9641 239.411C69.7931 238.827 73.5298 238.101 75.8554 237.599L76.078 238.576L76.3005 239.553C73.9412 240.062 70.1643 240.796 66.2895 241.387L66.1268 240.399ZM76.078 238.576L76.1235 237.578C77.0435 237.631 77.7503 237.819 78.3204 238.014L78.007 238.959L77.6936 239.904C77.2476 239.752 76.7249 239.614 76.0325 239.574L76.078 238.576ZM78.007 238.959L78.3204 238.014C78.6191 238.116 78.8781 238.218 79.1151 238.305L78.7788 239.243L78.4425 240.18C78.1481 240.071 77.9641 239.997 77.6935 239.904L78.007 238.959ZM78.7788 239.243L79.115 238.305C79.3503 238.392 79.559 238.462 79.7526 238.496L79.5912 239.48L79.4298 240.465C79.0428 240.397 78.6868 240.27 78.4425 240.18L78.7788 239.243ZM79.5912 239.48L79.7526 238.496C79.9476 238.53 80.1266 238.528 80.3005 238.473L80.616 239.425L80.9315 240.377C80.3695 240.557 79.8477 240.538 79.4298 240.465L79.5912 239.48ZM80.616 239.425L80.3003 238.473C80.4739 238.417 80.645 238.307 80.8241 238.123L81.5455 238.825L82.2669 239.526C81.9253 239.877 81.4888 240.199 80.9317 240.377L80.616 239.425ZM81.5455 238.825L80.824 238.123C81.1808 237.757 81.5669 237.098 82.0699 236.001L82.9805 236.426L83.8911 236.851C83.387 237.951 82.8833 238.892 82.2671 239.526L81.5455 238.825ZM82.9805 236.426L82.0699 236.001C82.2272 235.657 82.3277 235.136 82.3773 234.448L83.3753 234.531L84.3733 234.615C84.3191 235.367 84.1997 236.178 83.8911 236.851L82.9805 236.426ZM83.3753 234.531L82.3773 234.448C82.4268 233.76 82.4248 232.905 82.3766 231.895L83.376 231.859L84.3754 231.824C84.4257 232.876 84.4307 233.818 84.3733 234.615L83.3753 234.531ZM83.376 231.859L82.3766 231.895C82.2799 229.874 81.9981 227.229 81.5696 224.05L82.5612 223.928L83.5528 223.807C83.9838 227.005 84.2747 229.717 84.3754 231.824L83.376 231.859ZM82.5612 223.928L81.5696 224.05C80.7126 217.691 79.2706 209.19 77.5631 199.252L78.5492 199.095L79.5353 198.938C81.241 208.865 82.6899 217.405 83.5528 223.807L82.5612 223.928ZM78.5492 199.095L77.5631 199.252C74.1482 179.377 69.6687 153.75 66.6687 128.001L67.6625 127.897L68.6564 127.793C71.6489 153.479 76.1183 179.05 79.5353 198.938L78.5492 199.095ZM67.6625 127.897L66.6687 128.001C66.4977 126.533 66.4271 121.887 66.4132 115.675L67.4138 115.685L68.4143 115.695C68.4284 121.975 68.5022 126.47 68.6564 127.793L67.6625 127.897ZM67.4138 115.685L66.4132 115.675C66.3993 109.463 66.4426 101.685 66.4999 93.9525L67.5004 93.972L68.501 93.9916C68.4437 101.723 68.4005 109.494 68.4143 115.695L67.4138 115.685ZM67.5004 93.972L66.4999 93.9525C66.6144 78.4887 66.7854 63.2075 66.6692 61.0054L67.6684 60.965L68.6676 60.9245C68.788 63.2065 68.6149 78.6059 68.501 93.9916L67.5004 93.972ZM67.6684 60.965L66.6692 61.0055C66.4367 56.6049 63.4783 53.7431 59.8666 51.8465L60.3238 50.9631L60.7809 50.0797C64.6885 52.1316 68.3811 55.5016 68.6676 60.9244L67.6684 60.965ZM60.3238 50.9631L59.8667 51.8465C59.0761 51.4314 58.2489 51.0633 57.4073 50.7312L57.765 49.8023L58.1228 48.8733C59.0171 49.2262 59.9128 49.6239 60.7809 50.0797L60.3238 50.9631Z" fill="#FF7724"/>
<rect x="32.969" y="6.65784" width="26.0241" height="39.9656" fill="white"/>
<path d="M45.9713 25.6775C46.6027 26.6246 47.4866 28.8029 45.9713 29.9394" stroke="#FF7724" stroke-width="2" stroke-linecap="round" stroke-linejoin="round"/>
<path d="M42.183 33.2541C43.2879 34.6747 46.066 36.6636 48.3389 33.2541" stroke="#FF7724" stroke-width="2" stroke-linecap="round" stroke-linejoin="round"/>
<path d="M44.03 1.03013C49.1827 0.784856 54.218 2.00833 58.0251 5.62486C61.8307 9.24031 64.2506 15.097 64.4919 23.784C64.7327 32.4527 63.0488 37.2713 61.2692 40.1952C60.3865 41.6455 59.4963 42.5983 58.9128 43.2547C58.6059 43.6 58.4379 43.8055 58.3483 43.9588C58.3381 43.9764 58.3315 43.9915 58.3259 44.0028C58.561 44.9367 58.8893 46.1071 59.3561 47.0409C59.5954 47.5194 59.843 47.8785 60.0856 48.1063C60.3164 48.3229 60.4975 48.3826 60.6511 48.3827C60.9503 48.3828 61.2814 48.4653 61.5651 48.6932C61.8468 48.9197 61.9956 49.2196 62.0612 49.496C62.1826 50.0075 62.0547 50.5493 61.8757 50.9969C61.4991 51.9384 60.6606 53.0469 59.3815 54.0702C56.7902 56.1431 52.2701 57.9718 45.4274 57.4833C34.6187 56.7112 29.3679 52.3163 28.0436 49.8573C27.8838 49.5604 27.8849 49.2025 28.0456 48.9061C28.2064 48.6099 28.5056 48.4146 28.8415 48.3866C29.6619 48.3181 30.8684 48.0035 31.7936 47.3309C32.6665 46.6962 33.2869 45.7585 33.1384 44.2733C33.0367 43.2567 32.7074 42.3716 32.2194 41.3602C31.761 40.4101 31.0551 39.155 30.4382 37.7743C29.1345 34.8563 27.9245 30.8094 27.9245 23.8114C27.9246 16.8417 29.2426 11.2826 31.9499 7.37877C34.6908 3.427 38.781 1.28012 44.03 1.03013ZM45.2575 7.47838C44.8997 7.12062 44.3365 7.08967 43.9431 7.39146L43.8669 7.45592C42.6103 8.63394 40.6308 10.4488 38.78 12.0604C37.8541 12.8667 36.9663 13.6159 36.2214 14.2079C35.4497 14.8211 34.904 15.205 34.6325 15.3407C34.0404 15.6368 33.7189 16.2571 33.529 16.7391C33.316 17.2802 33.1552 17.9517 33.0349 18.6854C32.7929 20.1607 32.6883 22.044 32.7185 24.0047C32.7487 25.9698 32.9153 28.0487 33.2282 29.9188C33.5374 31.7659 34.0036 33.4993 34.6794 34.7157C37.288 39.4109 42.4495 40.9119 45.9714 40.912C49.6505 40.9119 53.75 38.8231 56.2897 34.7596C56.8609 33.8457 57.2745 32.4925 57.5895 31.0135C57.9106 29.5058 58.1512 27.7557 58.3308 25.9725C58.69 22.4041 58.8093 18.628 58.8093 16.2352C58.8092 15.8628 58.6024 15.5208 58.2722 15.3485C56.4678 14.4071 53.6414 12.8762 51.0349 11.3475C49.7312 10.583 48.4904 9.82376 47.4636 9.14244C46.4183 8.44883 45.6539 7.87474 45.2575 7.47838Z" fill="white"/>
<path d="M44.03 1.03013L43.9824 0.0312651L43.9824 0.0312663L44.03 1.03013ZM58.0251 5.62486L58.7139 4.89987L58.7138 4.89984L58.0251 5.62486ZM64.4919 23.784L65.4915 23.7563V23.7563L64.4919 23.784ZM61.2692 40.1952L62.1234 40.7151L62.1234 40.7151L61.2692 40.1952ZM58.9128 43.2547L58.1654 42.5904L58.1654 42.5904L58.9128 43.2547ZM58.3483 43.9588L57.4849 43.4543L57.4847 43.4548L58.3483 43.9588ZM58.3259 44.0028L57.4326 43.5532C57.3246 43.7678 57.2975 44.014 57.3561 44.247L58.3259 44.0028ZM59.3561 47.0409L58.4617 47.4881L58.4617 47.4881L59.3561 47.0409ZM60.0856 48.1063L59.4012 48.8354L59.4014 48.8356L60.0856 48.1063ZM60.6511 48.3827L60.6504 49.3827H60.6508L60.6511 48.3827ZM61.5651 48.6932L62.1918 47.9139L62.1913 47.9136L61.5651 48.6932ZM62.0612 49.496L63.0342 49.2651L63.0342 49.2651L62.0612 49.496ZM61.8757 50.9969L62.8042 51.3683L62.8042 51.3682L61.8757 50.9969ZM59.3815 54.0702L60.0062 54.8511L60.0063 54.851L59.3815 54.0702ZM45.4274 57.4833L45.3562 58.4807L45.3562 58.4807L45.4274 57.4833ZM28.0436 49.8573L27.1632 50.3314L27.1632 50.3314L28.0436 49.8573ZM28.0456 48.9061L27.1667 48.4291L27.1665 48.4294L28.0456 48.9061ZM28.8415 48.3866L28.9245 49.3831L28.9246 49.3831L28.8415 48.3866ZM31.7936 47.3309L32.3816 48.1398L32.3818 48.1397L31.7936 47.3309ZM33.1384 44.2733L34.1334 44.1738L34.1334 44.1738L33.1384 44.2733ZM32.2194 41.3602L33.1201 40.9256L33.1201 40.9256L32.2194 41.3602ZM30.4382 37.7743L29.5252 38.1822L29.5252 38.1822L30.4382 37.7743ZM27.9245 23.8114L26.9245 23.8114V23.8114H27.9245ZM31.9499 7.37877L31.1282 6.80885L31.1282 6.8089L31.9499 7.37877ZM45.2575 7.47838L45.9646 6.77125L45.9645 6.77118L45.2575 7.47838ZM43.9431 7.39146L43.3344 6.59799C43.3218 6.60772 43.3093 6.61775 43.2971 6.62808L43.9431 7.39146ZM43.8669 7.45592L43.2209 6.69253C43.208 6.70349 43.1953 6.71477 43.183 6.72638L43.8669 7.45592ZM38.78 12.0604L39.4367 12.8146L39.4367 12.8146L38.78 12.0604ZM36.2214 14.2079L36.8435 14.9908L36.8435 14.9908L36.2214 14.2079ZM34.6325 15.3407L34.1853 14.4463L34.1852 14.4463L34.6325 15.3407ZM33.529 16.7391L32.5986 16.3726L32.5985 16.3727L33.529 16.7391ZM33.0349 18.6854L32.048 18.5235L32.048 18.5236L33.0349 18.6854ZM32.7185 24.0047L31.7186 24.0201L31.7186 24.0201L32.7185 24.0047ZM33.2282 29.9188L32.2419 30.0839L32.2419 30.0839L33.2282 29.9188ZM34.6794 34.7157L33.8052 35.2013L33.8052 35.2013L34.6794 34.7157ZM45.9714 40.912L45.9714 41.912H45.9714L45.9714 40.912ZM56.2897 34.7596L57.1377 35.2896L57.1378 35.2896L56.2897 34.7596ZM57.5895 31.0135L58.5676 31.2219L58.5676 31.2218L57.5895 31.0135ZM58.3308 25.9725L59.3257 26.0727V26.0727L58.3308 25.9725ZM58.8093 16.2352L59.8093 16.2352V16.2349L58.8093 16.2352ZM58.2722 15.3485L58.7348 14.4619L58.7347 14.4619L58.2722 15.3485ZM51.0349 11.3475L50.529 12.2101L50.529 12.2101L51.0349 11.3475ZM47.4636 9.14244L46.9107 9.97569L46.9107 9.97569L47.4636 9.14244ZM44.03 1.03013L44.0775 2.029C49.0497 1.79232 53.7851 2.97638 57.3364 6.34988L58.0251 5.62486L58.7138 4.89984C54.6509 1.04028 49.3157 -0.222609 43.9824 0.0312651L44.03 1.03013ZM58.0251 5.62486L57.3363 6.34985C60.8876 9.72369 63.2555 15.2881 63.4923 23.8118L64.4919 23.784L65.4915 23.7563C65.2456 14.9059 62.7738 8.75692 58.7139 4.89987L58.0251 5.62486ZM64.4919 23.784L63.4923 23.8118C63.729 32.3351 62.0723 36.9525 60.415 39.6753L61.2692 40.1952L62.1234 40.7151C64.0254 37.5902 65.7363 32.5702 65.4915 23.7563L64.4919 23.784ZM61.2692 40.1952L60.415 39.6752C59.5864 41.0365 58.7571 41.9247 58.1654 42.5904L58.9128 43.2547L59.6602 43.9191C60.2355 43.2719 61.1865 42.2544 62.1234 40.7151L61.2692 40.1952ZM58.9128 43.2547L58.1654 42.5904C57.8705 42.9221 57.6331 43.2007 57.4849 43.4543L58.3483 43.9588L59.2117 44.4634C59.2427 44.4104 59.3412 44.2779 59.6602 43.9191L58.9128 43.2547ZM58.3483 43.9588L57.4847 43.4548C57.4632 43.4915 57.4474 43.5227 57.4378 43.5424C57.4334 43.5512 57.4294 43.5597 57.4287 43.5612C57.4268 43.5651 57.4292 43.5601 57.4326 43.5532L58.3259 44.0028L59.2191 44.4524C59.2226 44.4455 59.2254 44.4396 59.2274 44.4355C59.2294 44.4315 59.2311 44.4279 59.232 44.426C59.2332 44.4236 59.2334 44.4233 59.2337 44.4226C59.2338 44.4222 59.2336 44.4228 59.233 44.424C59.2306 44.4289 59.2232 44.4437 59.212 44.4629L58.3483 43.9588ZM58.3259 44.0028L57.3561 44.247C57.5922 45.1843 57.9418 46.4482 58.4617 47.4881L59.3561 47.0409L60.2506 46.5937C59.8368 45.766 59.5299 44.6891 59.2956 43.7586L58.3259 44.0028ZM59.3561 47.0409L58.4617 47.4881C58.7275 48.0197 59.0381 48.4945 59.4012 48.8354L60.0856 48.1063L60.7701 47.3772C60.6479 47.2625 60.4633 47.0191 60.2506 46.5937L59.3561 47.0409ZM60.0856 48.1063L59.4014 48.8356C59.7667 49.1783 60.1809 49.3824 60.6504 49.3827L60.6511 48.3827L60.6517 47.3827C60.6792 47.3827 60.7089 47.3855 60.739 47.3919C60.7689 47.3983 60.7922 47.4068 60.8078 47.4138C60.8378 47.4273 60.825 47.4288 60.7699 47.377L60.0856 48.1063ZM60.6511 48.3827L60.6508 49.3827C60.7707 49.3827 60.867 49.4151 60.9389 49.4729L61.5651 48.6932L62.1913 47.9136C61.6958 47.5155 61.1299 47.3828 60.6514 47.3827L60.6511 48.3827ZM61.5651 48.6932L60.9385 49.4725C61.0115 49.5312 61.0624 49.6177 61.0882 49.7268L62.0612 49.496L63.0342 49.2651C62.9289 48.8214 62.6821 48.3082 62.1918 47.9139L61.5651 48.6932ZM62.0612 49.496L61.0882 49.7268C61.1398 49.9444 61.0954 50.2549 60.9472 50.6256L61.8757 50.9969L62.8042 51.3682C63.0139 50.8438 63.2253 50.0707 63.0342 49.2651L62.0612 49.496ZM61.8757 50.9969L60.9472 50.6255C60.6513 51.3652 59.9407 52.3422 58.7568 53.2893L59.3815 54.0702L60.0063 54.851C61.3805 53.7515 62.3468 52.5117 62.8042 51.3683L61.8757 50.9969ZM59.3815 54.0702L58.7569 53.2893C56.3893 55.1832 52.1276 56.9591 45.4987 56.4858L45.4274 57.4833L45.3562 58.4807C52.4126 58.9846 57.1911 57.103 60.0062 54.8511L59.3815 54.0702ZM45.4274 57.4833L45.4987 56.4858C34.8912 55.7281 30.029 51.4347 28.9241 49.3831L28.0436 49.8573L27.1632 50.3314C28.7069 53.1978 34.3462 57.6943 45.3562 58.4807L45.4274 57.4833ZM28.0436 49.8573L28.9241 49.3832L28.9247 49.3828L28.0456 48.9061L27.1665 48.4294C26.8457 49.0211 26.8428 49.7365 27.1632 50.3314L28.0436 49.8573ZM28.0456 48.9061L28.9245 49.3831L28.9245 49.3831L28.8415 48.3866L28.7584 47.39C28.0867 47.446 27.4883 47.8366 27.1667 48.4291L28.0456 48.9061ZM28.8415 48.3866L28.9246 49.3831C29.8719 49.3041 31.2692 48.9485 32.3816 48.1398L31.7936 47.3309L31.2056 46.5221C30.4677 47.0585 29.4518 47.3322 28.7584 47.39L28.8415 48.3866ZM31.7936 47.3309L32.3818 48.1397C32.9163 47.751 33.4128 47.2405 33.7464 46.5624C34.0829 45.8781 34.2242 45.0822 34.1334 44.1738L33.1384 44.2733L32.1433 44.3728C32.201 44.9496 32.1064 45.3651 31.9517 45.6797C31.794 46.0003 31.5439 46.2761 31.2055 46.5221L31.7936 47.3309ZM33.1384 44.2733L34.1334 44.1738C34.015 42.9901 33.6306 41.9837 33.1201 40.9256L32.2194 41.3602L31.3188 41.7948C31.7843 42.7595 32.0584 43.5234 32.1433 44.3728L33.1384 44.2733ZM32.2194 41.3602L33.1201 40.9256C32.6118 39.8722 31.9717 38.7551 31.3512 37.3663L30.4382 37.7743L29.5252 38.1822C30.1385 39.5548 30.9102 40.948 31.3188 41.7948L32.2194 41.3602ZM30.4382 37.7743L31.3512 37.3663C30.1082 34.5844 28.9245 30.6774 28.9245 23.8114H27.9245H26.9245C26.9245 30.9414 28.1607 35.1283 29.5252 38.1822L30.4382 37.7743ZM27.9245 23.8114L28.9245 23.8114C28.9246 16.9455 30.2267 11.6184 32.7716 7.94864L31.9499 7.37877L31.1282 6.8089C28.2586 10.9467 26.9246 16.7379 26.9245 23.8114L27.9245 23.8114ZM31.9499 7.37877L32.7716 7.94869C35.3168 4.27909 39.1055 2.2658 44.0775 2.029L44.03 1.03013L43.9824 0.0312663C38.4565 0.294443 34.0648 2.57492 31.1282 6.80885L31.9499 7.37877ZM45.2575 7.47838L45.9645 6.77118C45.2484 6.05521 44.1221 5.99388 43.3344 6.59799L43.9431 7.39146L44.5517 8.18493C44.5518 8.18483 44.5516 8.18499 44.5511 8.18522C44.5507 8.18544 44.5504 8.18556 44.5502 8.18563C44.5499 8.18571 44.5502 8.18558 44.551 8.18562C44.5517 8.18567 44.5516 8.18579 44.5508 8.18545C44.5496 8.18489 44.5493 8.18436 44.5505 8.18557L45.2575 7.47838ZM43.9431 7.39146L43.2971 6.62808L43.2209 6.69253L43.8669 7.45592L44.5128 8.2193L44.589 8.15485L43.9431 7.39146ZM43.8669 7.45592L43.183 6.72638C41.9325 7.89863 39.9624 9.70483 38.1233 11.3062L38.78 12.0604L39.4367 12.8146C41.2992 11.1927 43.2881 9.36925 44.5508 8.18545L43.8669 7.45592ZM38.78 12.0604L38.1233 11.3062C37.2031 12.1075 36.3278 12.846 35.5992 13.425L36.2214 14.2079L36.8435 14.9908C37.6048 14.3858 38.505 13.6258 39.4367 12.8146L38.78 12.0604ZM36.2214 14.2079L35.5992 13.425C34.8166 14.0469 34.349 14.3644 34.1853 14.4463L34.6325 15.3407L35.0797 16.2351C35.4589 16.0455 36.0829 15.5952 36.8435 14.9908L36.2214 14.2079ZM34.6325 15.3407L34.1852 14.4463C33.2381 14.92 32.802 15.8562 32.5986 16.3726L33.529 16.7391L34.4594 17.1056C34.5394 16.9024 34.633 16.7082 34.7469 16.5469C34.8596 16.3872 34.9714 16.2893 35.0798 16.2351L34.6325 15.3407ZM33.529 16.7391L32.5985 16.3727C32.3492 17.0061 32.1742 17.7547 32.048 18.5235L33.0349 18.6854L34.0217 18.8473C34.1363 18.1486 34.2828 17.5543 34.4595 17.1055L33.529 16.7391ZM33.0349 18.6854L32.048 18.5236C31.7935 20.0757 31.6878 22.0221 31.7186 24.0201L32.7185 24.0047L33.7183 23.9894C33.6888 22.0659 33.7923 20.2456 34.0217 18.8472L33.0349 18.6854ZM32.7185 24.0047L31.7186 24.0201C31.7495 26.0268 31.9194 28.1565 32.2419 30.0839L33.2282 29.9188L34.2145 29.7538C33.9111 27.941 33.7479 25.9129 33.7183 23.9894L32.7185 24.0047ZM33.2282 29.9188L32.2419 30.0839C32.5569 31.9655 33.0456 33.834 33.8052 35.2013L34.6794 34.7157L35.5535 34.23C34.9617 33.1646 34.5178 31.5662 34.2145 29.7537L33.2282 29.9188ZM34.6794 34.7157L33.8052 35.2013C36.6553 40.3311 42.2436 41.9119 45.9714 41.912L45.9714 40.912L45.9714 39.912C42.6554 39.9119 37.9208 38.4908 35.5535 34.23L34.6794 34.7157ZM45.9714 40.912L45.9714 41.912C50.0151 41.9119 54.426 39.6282 57.1377 35.2896L56.2897 34.7596L55.4418 34.2296C53.074 38.0179 49.2859 39.9119 45.9714 39.912L45.9714 40.912ZM56.2897 34.7596L57.1378 35.2896C57.8064 34.2197 58.2481 32.7218 58.5676 31.2219L57.5895 31.0135L56.6115 30.8052C56.3009 32.2633 55.9154 33.4717 55.4417 34.2296L56.2897 34.7596ZM57.5895 31.0135L58.5676 31.2218C58.8992 29.6649 59.1442 27.8753 59.3257 26.0727L58.3308 25.9725L57.3358 25.8723C57.1582 27.6361 56.9221 29.3466 56.6115 30.8052L57.5895 31.0135ZM58.3308 25.9725L59.3257 26.0727C59.6891 22.4635 59.8093 18.653 59.8093 16.2352L58.8093 16.2352L57.8093 16.2352C57.8093 18.6029 57.6909 22.3447 57.3358 25.8724L58.3308 25.9725ZM58.8093 16.2352L59.8093 16.2349C59.809 15.4911 59.3961 14.807 58.7348 14.4619L58.2722 15.3485L57.8096 16.2351L57.8093 16.2355L58.8093 16.2352ZM58.2722 15.3485L58.7347 14.4619C56.9411 13.5261 54.1297 12.0033 51.5407 10.4849L51.0349 11.3475L50.529 12.2101C53.153 13.749 55.9944 15.288 57.8096 16.2351L58.2722 15.3485ZM51.0349 11.3475L51.5407 10.4849C50.2454 9.72522 49.0219 8.97634 48.0165 8.30918L47.4636 9.14244L46.9107 9.97569C47.9589 10.6712 49.2171 11.4407 50.529 12.2101L51.0349 11.3475ZM47.4636 9.14244L48.0165 8.30919C46.9732 7.61697 46.2837 7.0903 45.9646 6.77125L45.2575 7.47838L44.5504 8.18551C45.0241 8.65918 45.8633 9.2807 46.9107 9.97569L47.4636 9.14244Z" fill="#FF7724"/>
<path d="M42.3543 20.5993C41.3533 19.898 39.3014 18.916 37.2424 20.5993C36.313 21.064 35.8482 19.6699 35.8482 19.6699" stroke="#FF7724" stroke-width="1.5" stroke-linecap="round" stroke-linejoin="round"/>
<path d="M47.9309 20.5993C48.9318 19.898 50.9837 18.916 53.0427 20.5993C53.9722 21.064 54.4369 19.6699 54.4369 19.6699" stroke="#FF7724" stroke-width="1.5" stroke-linecap="round" stroke-linejoin="round"/>
<path d="M39.566 22.4582V20.5993" stroke="#FF7724" stroke-width="3" stroke-linecap="round"/>
<path d="M50.7192 22.4582V20.5993" stroke="#FF7724" stroke-width="3" stroke-linecap="round"/>
<path d="M43.6675 141.329C44.0092 132.901 45.0342 107.843 36.8336 98.9593" stroke="#81BBFF" stroke-width="2" stroke-linecap="round"/>
<path d="M43.6674 141.329C44.0091 132.901 40.5922 114.336 54.9434 101.351" stroke="#81BBFF" stroke-linecap="round"/>
<path d="M43.6675 141.329C44.0091 132.901 42.6424 122.536 51.5264 107.16" stroke="#81BBFF" stroke-width="2" stroke-linecap="round"/>
<path d="M43.6674 141.329C44.0091 132.901 40.2505 117.069 58.3603 109.552" stroke="#81BBFF" stroke-width="2" stroke-linecap="round"/>
<path d="M44.0092 140.646C43.6675 132.218 43.3941 113.379 45.0342 105.451" stroke="#81BBFF" stroke-width="2" stroke-linecap="round"/>
<path d="M44.0092 140.646C43.6675 132.218 46.401 104.085 52.5515 95.2006" stroke="#81BBFF" stroke-linecap="round"/>
<path d="M43.6675 141.329C44.0092 132.901 44.0092 112.627 26.9244 103.06" stroke="#81BBFF" stroke-width="2" stroke-linecap="round"/>
<path d="M43.6675 141.329C44.0092 132.901 44.6925 115.361 36.8336 107.502" stroke="#81BBFF" stroke-width="2" stroke-linecap="round"/>
<path d="M40.5922 121.853H47.4261L46.7854 129.37H41.2329L40.5922 121.853Z" fill="#D9D9D9" stroke="#81BBFF" stroke-width="2" stroke-linejoin="round"/>
<path d="M5.38123 79.7144C8.88621 63.5407 18.1598 55.8545 22.3585 54.0331C22.541 58.9508 22.7966 69.3326 22.3585 71.5182C21.8108 74.2503 13.596 97.7459 13.0484 101.571C12.5007 105.396 13.596 107.035 14.6913 109.221C15.7866 111.406 33.3115 121.788 37.1451 122.881C40.9787 123.974 44.8123 121.788 47.0029 123.427C49.1935 125.066 47.0029 129.438 43.1693 129.438C40.1024 129.438 38.2404 127.981 37.6928 127.252C35.1371 126.888 27.2874 125.285 16.3343 121.788C2.64296 117.417 1 110.313 1 108.674C1 107.035 1 99.9316 5.38123 79.7144Z" fill="white" stroke="#FF7724" stroke-width="2" stroke-linecap="round" stroke-linejoin="round"/>
<path d="M81.1941 77.3294C77.6892 61.3742 68.4156 53.7919 64.2169 51.9952C64.0343 56.8464 63.7788 67.0879 64.2169 69.244C64.7645 71.9391 72.9793 95.1173 73.527 98.8904C74.0746 102.664 72.9793 104.281 71.884 106.437C70.7887 108.593 53.2638 118.834 49.4302 119.912C45.5967 120.991 41.7631 118.834 39.5725 120.451C37.3819 122.069 39.5725 126.381 43.4061 126.381C46.4729 126.381 48.3349 124.943 48.8826 124.225C51.4383 123.865 59.288 122.284 70.2411 118.834C83.9324 114.522 85.5754 107.515 85.5754 105.898C85.5754 104.281 85.5754 97.2734 81.1941 77.3294Z" fill="white" stroke="#FF7724" stroke-width="2" stroke-linecap="round" stroke-linejoin="round"/>
<path d="M40.6851 101.334C41.376 100.584 40.7881 99.5364 40.4078 99.1061C40.6925 98.9702 41.3085 98.4662 41.4946 97.5381C41.7272 96.378 39.5186 95.5972 38.674 95.4761C37.8295 95.355 38.0621 94.1949 36.8925 94.4913C35.7228 94.7877 35.6017 95.6323 35.5922 96.1613C35.5826 96.6904 34.1166 95.8171 33.4664 96.6521C32.8163 97.4871 34.3843 98.5739 33.6417 98.6663C32.8991 98.7588 32.6665 99.9189 32.8609 100.875C33.0553 101.831 35.0791 101.127 35.1715 101.869C35.2639 102.612 36.0989 103.262 36.9435 103.383C37.7881 103.504 38.4382 102.669 38.6613 102.038C38.8844 101.407 39.8214 102.271 40.6851 101.334Z" fill="#C6E0FE" stroke="#2A6DF1"/>
<path d="M38.1121 98.8393C37.9413 98.9209 37.2675 98.7182 36.952 98.6067" stroke="#2A6DF1" stroke-linecap="round"/>
<path d="M37.5231 99.5462C37.3346 99.5291 36.8591 99.0105 36.645 98.7533" stroke="#2A6DF1" stroke-linecap="round"/>
<path d="M36.1013 100.034C36.0614 99.8485 36.4142 99.2398 36.5956 98.9586" stroke="#2A6DF1" stroke-linecap="round"/>
<path d="M35.8632 98.9086C36.0027 98.7807 36.7063 98.7777 37.0407 98.7923" stroke="#2A6DF1" stroke-linecap="round"/>
<path d="M35.8858 98.0669C36.0694 98.1129 36.4595 98.6984 36.6316 98.9855" stroke="#2A6DF1" stroke-linecap="round"/>
<path d="M36.7543 97.6521C36.8766 97.7966 36.8516 98.4998 36.8238 98.8333" stroke="#2A6DF1" stroke-linecap="round"/>
<path d="M55.7197 110.218C56.4106 109.468 55.8227 108.42 55.4424 107.99C55.7271 107.854 56.343 107.35 56.5292 106.422C56.7618 105.262 54.5532 104.481 53.7086 104.36C52.8641 104.239 53.0967 103.079 51.9271 103.375C50.7574 103.672 50.6363 104.516 50.6268 105.045C50.6172 105.574 49.1512 104.701 48.501 105.536C47.8508 106.371 49.4189 107.458 48.6763 107.55C47.9337 107.643 47.7011 108.803 47.8955 109.759C48.0899 110.715 50.1137 110.011 50.2061 110.753C50.2985 111.496 51.1335 112.146 51.9781 112.267C52.8226 112.388 53.4728 111.553 53.6959 110.922C53.919 110.291 54.856 111.155 55.7197 110.218Z" fill="#C6E0FE" stroke="#2A6DF1"/>
<path d="M53.1467 107.723C52.9759 107.805 52.3021 107.602 51.9866 107.491" stroke="#2A6DF1" stroke-linecap="round"/>
<path d="M52.5577 108.43C52.3692 108.413 51.8937 107.895 51.6795 107.637" stroke="#2A6DF1" stroke-linecap="round"/>
<path d="M51.1359 108.918C51.096 108.733 51.4488 108.124 51.6302 107.843" stroke="#2A6DF1" stroke-linecap="round"/>
<path d="M50.8978 107.793C51.0373 107.665 51.7409 107.662 52.0752 107.676" stroke="#2A6DF1" stroke-linecap="round"/>
<path d="M50.9204 106.951C51.104 106.997 51.4941 107.583 51.6662 107.87" stroke="#2A6DF1" stroke-linecap="round"/>
<path d="M51.7889 106.536C51.9112 106.681 51.8861 107.384 51.8584 107.717" stroke="#2A6DF1" stroke-linecap="round"/>
<path d="M32.779 106.72C33.7767 105.638 32.9278 104.125 32.3786 103.504C32.7897 103.307 33.6791 102.58 33.9478 101.239C34.2838 99.5644 31.0946 98.4369 29.8751 98.262C28.6556 98.0871 28.9915 96.412 27.3026 96.84C25.6137 97.268 25.4388 98.4875 25.425 99.2514C25.4112 100.015 23.2943 98.7544 22.3555 99.9602C21.4167 101.166 23.6808 102.735 22.6086 102.869C21.5363 103.002 21.2004 104.677 21.4811 106.058C21.7618 107.438 24.6841 106.421 24.8175 107.494C24.951 108.566 26.1567 109.505 27.3762 109.68C28.5958 109.854 29.5346 108.649 29.8567 107.737C30.1788 106.826 31.5318 108.073 32.779 106.72Z" fill="#81BBFF" stroke="#2A6DF1"/>
<path d="M29.0636 103.118C28.817 103.236 27.8441 102.943 27.3885 102.782" stroke="#2A6DF1" stroke-linecap="round"/>
<path d="M28.2132 104.139C27.941 104.114 27.2544 103.365 26.9452 102.994" stroke="#2A6DF1" stroke-linecap="round"/>
<path d="M26.1602 104.843C26.1025 104.576 26.612 103.697 26.8739 103.291" stroke="#2A6DF1" stroke-linecap="round"/>
<path d="M25.8163 103.218C26.0178 103.034 27.0338 103.029 27.5165 103.05" stroke="#2A6DF1" stroke-linecap="round"/>
<path d="M25.849 102.003C26.1141 102.069 26.6774 102.915 26.9259 103.329" stroke="#2A6DF1" stroke-linecap="round"/>
<path d="M27.103 101.404C27.2796 101.613 27.2435 102.628 27.2034 103.11" stroke="#2A6DF1" stroke-linecap="round"/>
<path d="M57.0581 98.3617C58.0314 97.3546 57.2649 96.0037 56.76 95.454C57.1547 95.2655 58.0164 94.5829 58.3051 93.3605C58.666 91.8326 55.6712 90.8907 54.5195 90.763C53.3678 90.6352 53.7287 89.1073 52.1168 89.5383C50.5048 89.9693 50.3081 91.0799 50.2757 91.7732C50.2432 92.4665 48.2683 91.3763 47.3478 92.4938C46.4273 93.6113 48.534 94.9773 47.5141 95.1255C46.4942 95.2738 46.1333 96.8017 46.3644 98.0469C46.5956 99.2921 49.3917 98.2955 49.491 99.2647C49.5904 100.234 50.7096 101.055 51.8613 101.183C53.013 101.31 53.9335 100.193 54.262 99.3583C54.5905 98.5236 55.8415 99.6206 57.0581 98.3617Z" fill="#C6E0FE" stroke="#2A6DF1"/>
<path d="M53.6272 95.1885C53.3904 95.3017 52.4755 95.0608 52.0477 94.9263" stroke="#2A6DF1" stroke-linecap="round"/>
<path d="M52.7951 96.136C52.5377 96.1204 51.9058 95.4585 51.622 95.1296" stroke="#2A6DF1" stroke-linecap="round"/>
<path d="M50.831 96.8263C50.7831 96.5854 51.2883 95.7752 51.5469 95.4002" stroke="#2A6DF1" stroke-linecap="round"/>
<path d="M50.5462 95.3615C50.7419 95.1889 51.7051 95.1593 52.1622 95.1661" stroke="#2A6DF1" stroke-linecap="round"/>
<path d="M50.6079 94.2583C50.8576 94.3118 51.3702 95.0645 51.5952 95.4341" stroke="#2A6DF1" stroke-linecap="round"/>
<path d="M51.812 93.6833C51.9741 93.8681 51.9141 94.7899 51.8639 95.2278" stroke="#2A6DF1" stroke-linecap="round"/>
<path d="M42.2746 109.278C40.9078 108.731 41.0217 107 41.2495 106.203C40.7939 106.203 39.6777 105.929 38.8576 104.836C37.8325 103.469 40.2244 101.077 41.2495 100.394C42.2746 99.7105 41.2495 98.3437 42.958 98.002C44.6664 97.6603 45.3498 98.6854 45.6915 99.3688C46.0332 100.052 47.4 98.002 48.7668 98.6854C50.1335 99.3688 48.7668 101.761 49.7919 101.419C50.8169 101.077 51.842 102.444 52.1837 103.811C52.5254 105.178 49.4502 105.519 49.7919 106.544C50.1335 107.569 49.4502 108.936 48.4251 109.62C47.4 110.303 46.0332 109.62 45.3498 108.936C44.6664 108.253 43.983 109.961 42.2746 109.278Z" fill="#81BBFF" stroke="#2A6DF1"/>
<path d="M44.0747 104.426C44.348 104.426 45.0998 103.743 45.4415 103.401" stroke="#2A6DF1" stroke-linecap="round"/>
<path d="M45.282 104.981C45.517 104.841 45.8138 103.87 45.9328 103.401" stroke="#2A6DF1" stroke-linecap="round"/>
<path d="M47.4379 104.731C47.3748 104.465 46.5362 103.892 46.1249 103.638" stroke="#2A6DF1" stroke-linecap="round"/>
<path d="M47.0481 103.117C46.7866 103.037 45.8681 103.471 45.4415 103.698" stroke="#2A6DF1" stroke-linecap="round"/>
<path d="M46.4948 102.035C46.2841 102.209 46.1403 103.214 46.0947 103.695" stroke="#2A6DF1" stroke-linecap="round"/>
<path d="M45.1051 102.035C45.0357 102.299 45.5058 103.2 45.7496 103.617" stroke="#2A6DF1" stroke-linecap="round"/>
<path d="M38.8576 98.3437C37.4908 97.797 37.6047 96.0658 37.8325 95.2685C37.3769 95.2685 36.2607 94.9951 35.4407 93.9017C34.4156 92.5349 36.8074 90.1431 37.8325 89.4597C38.8576 88.7763 37.8325 87.4095 39.541 87.0678C41.2495 86.7261 41.9329 87.7512 42.2746 88.4346C42.6163 89.118 43.983 87.0678 45.3498 87.7512C46.7166 88.4346 45.3498 90.8264 46.3749 90.4848C47.4 90.1431 48.4251 91.5098 48.7668 92.8766C49.1085 94.2434 46.0332 94.5851 46.3749 95.6102C46.7166 96.6353 46.0332 98.002 45.0081 98.6854C43.983 99.3688 42.6163 98.6854 41.9329 98.002C41.2495 97.3186 40.5661 99.0271 38.8576 98.3437Z" fill="#81BBFF" stroke="#2A6DF1"/>
<path d="M40.6577 93.4921C40.9311 93.4921 41.6828 92.8087 42.0245 92.4671" stroke="#2A6DF1" stroke-linecap="round"/>
<path d="M41.8651 94.0467C42.1 93.907 42.3968 92.9354 42.5159 92.467" stroke="#2A6DF1" stroke-linecap="round"/>
<path d="M44.0209 93.7969C43.9578 93.5309 43.1193 92.9573 42.7079 92.7038" stroke="#2A6DF1" stroke-linecap="round"/>
<path d="M43.6311 92.1829C43.3697 92.103 42.4511 92.5371 42.0245 92.764" stroke="#2A6DF1" stroke-linecap="round"/>
<path d="M43.0779 91.1003C42.8672 91.2745 42.7233 92.2802 42.6777 92.7612" stroke="#2A6DF1" stroke-linecap="round"/>
<path d="M41.6881 91.1003C41.6187 91.3647 42.0889 92.2653 42.3326 92.6825" stroke="#2A6DF1" stroke-linecap="round"/>
<path d="M33.3905 112.695C32.0237 112.148 32.1376 110.417 32.3654 109.62C31.9098 109.62 30.7936 109.346 29.9735 108.253C28.9485 106.886 31.3403 104.494 32.3654 103.811C33.3905 103.127 32.3654 101.761 34.0739 101.419C35.7824 101.077 36.4657 102.102 36.8074 102.786C37.1491 103.469 38.5159 101.419 39.8827 102.102C41.2495 102.786 39.8827 105.178 40.9078 104.836C41.9329 104.494 42.9579 105.861 43.2996 107.228C43.6413 108.595 40.5661 108.936 40.9078 109.961C41.2495 110.986 40.5661 112.353 39.541 113.037C38.5159 113.72 37.1491 113.037 36.4657 112.353C35.7824 111.67 35.099 113.378 33.3905 112.695Z" fill="#2A6DF1" stroke="#B3CDFF"/>
<path d="M35.1906 107.843C35.464 107.843 36.2157 107.16 36.5574 106.818" stroke="#B3CDFF" stroke-linecap="round"/>
<path d="M36.398 108.398C36.6329 108.258 36.9297 107.287 37.0487 106.818" stroke="#B3CDFF" stroke-linecap="round"/>
<path d="M38.5538 108.148C38.4907 107.882 37.6522 107.309 37.2408 107.055" stroke="#B3CDFF" stroke-linecap="round"/>
<path d="M38.164 106.534C37.9025 106.454 36.984 106.888 36.5574 107.115" stroke="#B3CDFF" stroke-linecap="round"/>
<path d="M37.6107 105.451C37.4001 105.626 37.2562 106.631 37.2106 107.112" stroke="#B3CDFF" stroke-linecap="round"/>
<path d="M36.221 105.451C36.1516 105.716 36.6218 106.616 36.8655 107.034" stroke="#B3CDFF" stroke-linecap="round"/>
<path d="M54.5756 114.745C53.2088 114.198 53.3227 112.467 53.5505 111.67C53.0949 111.67 51.9787 111.396 51.1586 110.303C50.1335 108.936 52.5254 106.544 53.5505 105.861C54.5756 105.178 53.5505 103.811 55.259 103.469C56.9674 103.127 57.6508 104.153 57.9925 104.836C58.3342 105.519 59.701 103.469 61.0678 104.153C62.4346 104.836 61.0678 107.228 62.0929 106.886C63.1179 106.544 64.143 107.911 64.4847 109.278C64.8264 110.645 61.7512 110.986 62.0929 112.012C62.4346 113.037 61.7512 114.403 60.7261 115.087C59.701 115.77 58.3342 115.087 57.6508 114.403C56.9674 113.72 56.284 115.428 54.5756 114.745Z" fill="#2A6DF1" stroke="#B3CDFF"/>
<path d="M56.3757 109.893C56.6491 109.893 57.4008 109.21 57.7425 108.868" stroke="#B3CDFF" stroke-linecap="round"/>
<path d="M57.583 110.448C57.818 110.308 58.1148 109.337 58.2338 108.868" stroke="#B3CDFF" stroke-linecap="round"/>
<path d="M59.7389 110.198C59.6758 109.932 58.8372 109.359 58.4259 109.105" stroke="#B3CDFF" stroke-linecap="round"/>
<path d="M59.3491 108.584C59.0876 108.504 58.1691 108.938 57.7425 109.165" stroke="#B3CDFF" stroke-linecap="round"/>
<path d="M58.7958 107.502C58.5852 107.676 58.4413 108.682 58.3957 109.163" stroke="#B3CDFF" stroke-linecap="round"/>
<path d="M57.4061 107.502C57.3367 107.766 57.8068 108.667 58.0506 109.084" stroke="#B3CDFF" stroke-linecap="round"/>
<path d="M61.3462 104.967C62.3439 103.885 61.495 102.372 60.9458 101.75C61.3569 101.554 62.2463 100.826 62.5151 99.4861C62.851 97.811 59.6618 96.6835 58.4423 96.5086C57.2228 96.3338 57.5587 94.6586 55.8698 95.0866C54.1809 95.5146 54.006 96.7341 53.9922 97.4981C53.9784 98.262 51.8615 97.0011 50.9227 98.2068C49.9839 99.4125 52.2481 100.982 51.1758 101.115C50.1035 101.249 49.7676 102.924 50.0483 104.304C50.3291 105.685 53.2513 104.668 53.3848 105.74C53.5182 106.812 54.7239 107.751 55.9435 107.926C57.163 108.101 58.1018 106.895 58.4239 105.984C58.7461 105.073 60.0991 106.32 61.3462 104.967Z" fill="#81BBFF" stroke="#2A6DF1"/>
<path d="M57.6309 101.365C57.3842 101.483 56.4114 101.19 55.9558 101.029" stroke="#2A6DF1" stroke-linecap="round"/>
<path d="M56.7804 102.386C56.5082 102.361 55.8216 101.612 55.5124 101.241" stroke="#2A6DF1" stroke-linecap="round"/>
<path d="M54.7274 103.089C54.6697 102.822 55.1792 101.943 55.4411 101.537" stroke="#2A6DF1" stroke-linecap="round"/>
<path d="M54.3836 101.465C54.5851 101.28 55.601 101.276 56.0838 101.297" stroke="#2A6DF1" stroke-linecap="round"/>
<path d="M54.4162 100.25C54.6814 100.316 55.2446 101.162 55.4931 101.576" stroke="#2A6DF1" stroke-linecap="round"/>
<path d="M55.6703 99.6507C55.8468 99.8594 55.8107 100.875 55.7706 101.356" stroke="#2A6DF1" stroke-linecap="round"/>
</svg>
