<svg width="94" height="294" viewBox="0 0 94 294" fill="none" xmlns="http://www.w3.org/2000/svg">
<rect x="39.0781" y="123" width="40" height="35" fill="#D3D3D3"/>
<path d="M41.1284 288.048V277.548L32.6284 276.548C28.295 279.381 18.9284 285.448 16.1284 287.048C12.6284 289.048 13.6284 292.048 14.6284 292.548C15.6284 293.048 23.6284 290.548 28.6284 289.048C32.6284 287.848 34.9618 287.881 35.6284 288.048H41.1284Z" fill="white" stroke="#FF7724" stroke-width="2" stroke-linejoin="round"/>
<path d="M60.6857 287.548V277.048L69.1857 276.048C73.519 278.881 82.8857 284.948 85.6857 286.548C89.1857 288.548 88.1857 291.548 87.1857 292.048C86.1857 292.548 78.1857 290.048 73.1857 288.548C69.1857 287.348 66.8523 287.381 66.1857 287.548H60.6857Z" fill="white" stroke="#FF7724" stroke-width="2" stroke-linejoin="round"/>
<path d="M22.1284 157.548L24.6284 279.548H44.1284L51.1284 168.048H54.1284L59.1856 279.548H76.6856L82.6284 157.548H51.1284H22.1284Z" fill="white" stroke="#FF7724" stroke-width="2" stroke-linejoin="round"/>
<path d="M82.933 157.539C82.7593 157.09 82.2351 157 81.7539 157H42.8789C41.8228 157 40.9487 157.821 40.8828 158.875L39.1328 186.875C39.0608 188.027 39.9753 189 41.1289 189H83.4933C84.6005 189 85.4925 188.102 85.4656 186.995C85.3941 184.044 85.1741 177.898 84.5 169C83.9193 161.335 83.3219 158.543 82.933 157.539Z" fill="#F0F0F0" stroke="#FF7724" stroke-width="2" stroke-linejoin="round"/>
<path d="M23.6233 148.48C23.8379 147.604 24.6262 147 25.5285 147H60.0495C61.3152 147 62.2626 148.161 62.0089 149.401L53.8271 189.401C53.6367 190.332 52.8178 191 51.8677 191H21.0067C19.8995 191 19.0075 190.102 19.0344 188.995C19.1059 186.044 19.3259 179.898 20 171C20.764 160.915 22.7819 151.917 23.6233 148.48Z" fill="#F0F0F0" stroke="#FF7724" stroke-width="2" stroke-linejoin="round"/>
<path d="M4.68561 169.82C4.68561 167.02 5.01894 157.987 5.18561 153.82C7.51894 152.987 12.1856 152.12 12.1856 155.32C12.1856 159.32 17.1856 161.82 17.6856 164.32C18.1856 166.82 12.1856 161.82 12.1856 163.32C12.1856 164.82 10.7412 175.537 9.18561 175.82C5.18561 176.548 4.68561 173.32 4.68561 169.82Z" fill="white" stroke="#FF7724" stroke-width="2" stroke-linejoin="round"/>
<path d="M39.2637 21.5481C41.5299 21.5481 43.2637 23.1688 43.2637 25.0481C43.2637 26.9273 41.5299 28.5481 39.2637 28.5481C36.9976 28.5481 35.2637 26.9273 35.2637 25.0481C35.2637 23.1688 36.9976 21.5481 39.2637 21.5481Z" fill="white" stroke="#FF7724"/>
<path d="M67.2637 21.5481C69.5299 21.5481 71.2637 23.1688 71.2637 25.0481C71.2637 26.9273 69.5299 28.5481 67.2637 28.5481C64.9976 28.5481 63.2637 26.9273 63.2637 25.0481C63.2637 23.1688 64.9976 21.5481 67.2637 21.5481Z" fill="white" stroke="#FF7724"/>
<path d="M45.2637 45.0481C45.2637 47.8481 42.2637 49.5481 40.7637 50.0481L46.2637 61.5481L59.7637 62.5481C61.5971 60.3814 65.7637 51.0481 63.7637 51.0481C61.7637 51.0481 61.2637 48.3814 61.2637 47.0481V41.0481C61.5971 40.8814 62.7637 40.5481 64.7637 38.5481C66.7637 36.5481 67.2637 33.7147 67.2637 33.0481V15.0481C67.2637 10.5481 63.2637 7.04808 59.7637 7.04808C56.2637 7.04808 56.2637 9.54808 53.7637 9.54808C51.2637 9.54808 52.7637 7.04808 46.7637 7.04808C41.9637 7.04808 39.2637 12.4535 39.2637 15.0481V33.0481C39.2637 36.94 43.7637 40.2147 45.2637 41.0481V45.0481Z" fill="white" stroke="#FF7724" stroke-width="2" stroke-linejoin="round"/>
<path d="M52.7637 67.5481V124.548L51.0359 158.672C50.889 161.575 48.3063 163.741 45.4222 163.38L22.7637 160.548L19.7637 61.5481C24.7637 59.3814 27.2637 55.8481 31.2637 55.0481L31.2639 55.048C36.2638 54.0481 41.2638 53.0481 45.2637 53.0481C49.7637 53.0481 52.9304 65.5481 52.7637 67.5481Z" fill="#E8E8E8" stroke="#FF7724" stroke-width="2" stroke-linejoin="round"/>
<path d="M52.7701 67.5481V124.548L55.3734 158.391C55.5903 161.21 58.1003 163.289 60.9108 162.977L82.7701 160.548L85.7701 61.5481C80.7701 59.3814 78.2701 55.8481 74.2701 55.0481L74.2699 55.048C69.27 54.0481 64.27 53.0481 60.2701 53.0481C55.7701 53.0481 52.6034 65.5481 52.7701 67.5481Z" fill="#E8E8E8" stroke="#FF7724" stroke-width="2" stroke-linejoin="round"/>
<path d="M58.6765 91.4096C59.3083 85.0245 56.5236 63.5862 55.2638 54.0481C58.2017 50.9609 60.4326 45.0496 61.7637 46.0479C63.7637 47.5479 67.006 51.2897 67.7434 52.1436C71.7074 53.2529 80.8788 55.9056 85.8527 57.6428C92.07 59.8142 92.0912 79.8223 91.9952 83.321C91.9183 86.12 88.2368 137.071 86.4056 162.197L59.0359 161.446C58.6529 140.761 58.0447 97.7946 58.6765 91.4096Z" fill="white" stroke="#FF7724" stroke-width="2" stroke-linejoin="round"/>
<path d="M44.9523 45.7497C45.3051 45.7369 45.5725 45.886 45.715 45.9831C45.8685 46.0878 45.9961 46.2148 46.0939 46.3239C46.4581 46.7306 46.8854 47.4391 47.3137 48.156C48.2325 49.6941 49.3892 51.6792 50.7648 53.1247C50.973 53.3436 51.0708 53.6446 51.0314 53.944C50.4028 58.7037 49.4997 66.2444 48.8322 73.3874C48.1608 80.5734 47.7416 87.2338 48.0461 90.3112C48.3688 93.5734 48.3728 105.987 48.2521 120.074C48.1312 134.203 47.8832 150.119 47.6916 160.464C47.6815 161.008 47.2365 161.446 46.6916 161.446L21.2639 161.445C20.9987 161.445 20.7443 161.341 20.5568 161.153C20.3694 160.966 20.264 160.711 20.2639 160.446C20.2639 150.526 19.243 137.642 17.9523 125.196C17.8068 127.706 17.6921 130.561 17.5988 133.654C17.3813 140.869 17.2687 149.233 17.0529 157.433C17.0387 157.972 16.599 158.403 16.0598 158.407L2.52266 158.5C1.99696 158.503 1.55817 158.099 1.51875 157.575C1.33957 155.184 0.990587 145.939 1.00019 127.898C1.01229 105.243 9.07899 67.5276 9.92793 62.1911C10.154 60.7717 11.0356 59.6195 12.1447 58.7067C13.2565 57.7919 14.6773 57.0484 16.1613 56.4499C19.0663 55.2785 22.3999 54.5891 24.6477 54.2995C26.0737 53.9735 27.5574 53.6664 29.0031 53.3786C32.2641 52.7294 35.3123 52.1678 37.2609 51.6452C37.3929 51.5307 37.5375 51.4206 37.6721 51.323C37.9241 51.1402 38.2322 50.9344 38.5646 50.7175C39.2519 50.2691 40.0262 49.784 40.8322 49.2487C41.628 48.7203 42.3818 48.1899 42.9533 47.7048C43.2391 47.4622 43.4582 47.2481 43.6096 47.0681C43.7509 46.9 43.7895 46.8129 43.7951 46.8005L43.8322 46.6706C43.8774 46.5318 43.9477 46.3683 44.0637 46.2165C44.2409 45.9846 44.5426 45.7647 44.9523 45.7497Z" fill="white"/>
<path d="M44.9523 45.7497L44.9162 44.7504L44.9157 44.7504L44.9523 45.7497ZM45.715 45.9831L46.2785 45.157L46.2782 45.1568L45.715 45.9831ZM46.0939 46.3239L46.8389 45.6568L46.8388 45.6567L46.0939 46.3239ZM47.3137 48.156L48.1721 47.6431L48.1721 47.6431L47.3137 48.156ZM50.7648 53.1247L51.4895 52.4356L51.4892 52.4353L50.7648 53.1247ZM51.0314 53.944L52.0228 54.075L52.0229 54.0744L51.0314 53.944ZM48.8322 73.3874L47.8366 73.2944V73.2944L48.8322 73.3874ZM48.0461 90.3112L49.0412 90.2128L49.0412 90.2128L48.0461 90.3112ZM48.2521 120.074L47.2522 120.065V120.065L48.2521 120.074ZM47.6916 160.464L48.6914 160.482V160.482L47.6916 160.464ZM46.6916 161.446L46.6916 162.446H46.6919L46.6916 161.446ZM21.2639 161.445L21.2636 162.445H21.2638L21.2639 161.445ZM20.5568 161.153L19.8497 161.86L19.8497 161.86L20.5568 161.153ZM20.2639 160.446H19.2639V160.446L20.2639 160.446ZM17.9523 125.196L18.947 125.093C18.8933 124.575 18.4506 124.184 17.9296 124.196C17.4087 124.208 16.9842 124.618 16.954 125.138L17.9523 125.196ZM17.5988 133.654L16.5993 133.624V133.624L17.5988 133.654ZM17.0529 157.433L16.0533 157.407V157.407L17.0529 157.433ZM16.0598 158.407L16.0666 159.407L16.0669 159.407L16.0598 158.407ZM2.52266 158.5L2.5292 159.5H2.52951L2.52266 158.5ZM1.51875 157.575L0.521544 157.65L0.521565 157.65L1.51875 157.575ZM1.00019 127.898L0.00019449 127.898V127.898L1.00019 127.898ZM9.92793 62.1911L8.94037 62.0338L8.94035 62.034L9.92793 62.1911ZM12.1447 58.7067L11.5093 57.9346L11.5093 57.9346L12.1447 58.7067ZM16.1613 56.4499L15.7874 55.5225L15.7873 55.5225L16.1613 56.4499ZM24.6477 54.2995L24.7754 55.2913C24.8074 55.2872 24.8391 55.2815 24.8705 55.2744L24.6477 54.2995ZM29.0031 53.3786L28.8079 52.3979L28.8079 52.3979L29.0031 53.3786ZM37.2609 51.6452L37.52 52.6111C37.6664 52.5718 37.8019 52.4998 37.9164 52.4004L37.2609 51.6452ZM37.6721 51.323L37.0849 50.5135L37.0848 50.5135L37.6721 51.323ZM38.5646 50.7175L38.0182 49.88V49.88L38.5646 50.7175ZM40.8322 49.2487L41.3855 50.0818L41.3855 50.0818L40.8322 49.2487ZM42.9533 47.7048L43.6004 48.4672L43.6004 48.4672L42.9533 47.7048ZM43.6096 47.0681L44.375 47.7116L44.375 47.7116L43.6096 47.0681ZM43.7951 46.8005L44.7065 47.2121C44.7265 47.1677 44.7433 47.122 44.7566 47.0752L43.7951 46.8005ZM43.8322 46.6706L42.8812 46.3614C42.8775 46.3728 42.874 46.3843 42.8707 46.3959L43.8322 46.6706ZM44.0637 46.2165L43.2692 45.6092L43.269 45.6094L44.0637 46.2165ZM44.9523 45.7497L44.9885 46.7491C45.0357 46.7474 45.0895 46.767 45.1518 46.8094L45.715 45.9831L46.2782 45.1568C46.0555 45.005 45.5745 44.7265 44.9162 44.7504L44.9523 45.7497ZM45.715 45.9831L45.1515 46.8092C45.2125 46.8508 45.2791 46.913 45.3491 46.9912L46.0939 46.3239L46.8388 45.6567C46.7132 45.5165 46.5246 45.3248 46.2785 45.157L45.715 45.9831ZM46.0939 46.3239L45.349 46.9911C45.6339 47.3092 46.0065 47.9178 46.4552 48.6688L47.3137 48.156L48.1721 47.6431C47.7643 46.9603 47.2824 46.152 46.8389 45.6568L46.0939 46.3239ZM47.3137 48.156L46.4552 48.6688C47.3551 50.1751 48.5714 52.2704 50.0404 53.8141L50.7648 53.1247L51.4892 52.4353C50.207 51.0879 49.11 49.2131 48.1721 47.6431L47.3137 48.156ZM50.7648 53.1247L50.0402 53.8138L50.04 53.8137L51.0314 53.944L52.0229 54.0744C52.1016 53.4759 51.906 52.8736 51.4895 52.4356L50.7648 53.1247ZM51.0314 53.944L50.0401 53.8131C49.4102 58.5823 48.5055 66.1359 47.8366 73.2944L48.8322 73.3874L49.8279 73.4804C50.4939 66.3528 51.3954 58.8252 52.0228 54.075L51.0314 53.944ZM48.8322 73.3874L47.8366 73.2944C47.1677 80.4524 46.7351 87.217 47.0509 90.4097L48.0461 90.3112L49.0412 90.2128C48.7482 87.2507 49.1538 80.6945 49.8279 73.4804L48.8322 73.3874ZM48.0461 90.3112L47.0509 90.4097C47.3668 93.603 47.3731 105.941 47.2522 120.065L48.2521 120.074L49.2521 120.082C49.3724 106.033 49.3707 93.5439 49.0412 90.2128L48.0461 90.3112ZM48.2521 120.074L47.2522 120.065C47.1312 134.19 46.8833 150.103 46.6918 160.445L47.6916 160.464L48.6914 160.482C48.883 150.135 49.1311 134.216 49.2521 120.082L48.2521 120.074ZM47.6916 160.464L46.6918 160.445C46.6917 160.446 46.6916 160.446 46.6917 160.446C46.6918 160.446 46.692 160.445 46.6921 160.445C46.6923 160.444 46.6922 160.445 46.6913 160.446C46.6904 160.447 46.69 160.447 46.6906 160.446C46.691 160.446 46.6915 160.446 46.6919 160.446C46.6925 160.446 46.6923 160.446 46.6913 160.446L46.6916 161.446L46.6919 162.446C47.7823 162.446 48.6713 161.571 48.6914 160.482L47.6916 160.464ZM46.6916 161.446L46.6916 160.446L21.2639 160.445L21.2639 161.445L21.2638 162.445L46.6916 162.446L46.6916 161.446ZM21.2639 161.445L21.2641 160.445L21.2639 160.446L20.5568 161.153L19.8497 161.86C20.2264 162.237 20.7358 162.445 21.2636 162.445L21.2639 161.445ZM20.5568 161.153L21.2639 160.446L21.2639 160.446L20.2639 160.446L19.2639 160.446C19.2641 160.976 19.4747 161.485 19.8497 161.86L20.5568 161.153ZM20.2639 160.446H21.2639C21.2639 150.472 20.2384 137.546 18.947 125.093L17.9523 125.196L16.9577 125.299C18.2476 137.738 19.2639 150.58 19.2639 160.446H20.2639ZM17.9523 125.196L16.954 125.138C16.8077 127.661 16.6927 130.525 16.5993 133.624L17.5988 133.654L18.5984 133.684C18.6915 130.596 18.8058 127.752 18.9507 125.254L17.9523 125.196ZM17.5988 133.654L16.5993 133.624C16.382 140.829 16.2683 149.237 16.0533 157.407L17.0529 157.433L18.0526 157.46C18.2691 149.23 18.3805 140.908 18.5984 133.684L17.5988 133.654ZM17.0529 157.433L16.0533 157.407L16.0527 157.407L16.0598 158.407L16.0669 159.407C17.1445 159.399 18.0242 158.539 18.0526 157.46L17.0529 157.433ZM16.0598 158.407L16.0529 157.407L2.5158 157.5L2.52266 158.5L2.52951 159.5L16.0666 159.407L16.0598 158.407ZM2.52266 158.5L2.51611 157.5L2.51593 157.5L1.51875 157.575L0.521565 157.65C0.600451 158.699 1.47828 159.507 2.5292 159.5L2.52266 158.5ZM1.51875 157.575L2.51595 157.5C2.33984 155.15 1.99059 145.939 2.00019 127.899L1.00019 127.898L0.00019449 127.898C-0.00941384 145.94 0.3393 155.217 0.521545 157.65L1.51875 157.575ZM1.00019 127.898L2.00019 127.899C2.01223 105.349 10.0479 67.8021 10.9155 62.3482L9.92793 62.1911L8.94035 62.034C8.11009 67.2531 0.0123417 105.138 0.00019449 127.898L1.00019 127.898ZM9.92793 62.1911L10.9155 62.3484C11.0891 61.2583 11.7767 60.3047 12.7802 59.4789L12.1447 58.7067L11.5093 57.9346C10.2945 58.9343 9.21888 60.2851 8.94037 62.0338L9.92793 62.1911ZM12.1447 58.7067L12.7801 59.4789C13.7835 58.6532 15.1021 57.9553 16.5353 57.3773L16.1613 56.4499L15.7873 55.5225C14.2525 56.1414 12.7294 56.9306 11.5093 57.9346L12.1447 58.7067ZM16.1613 56.4499L16.5353 57.3773C19.3384 56.2471 22.5835 55.5737 24.7754 55.2913L24.6477 54.2995L24.5199 53.3077C22.2162 53.6045 18.7943 54.31 15.7874 55.5225L16.1613 56.4499ZM24.6477 54.2995L24.8705 55.2744C26.2836 54.9513 27.7569 54.6463 29.1984 54.3594L29.0031 53.3786L28.8079 52.3979C27.3578 52.6865 25.8639 52.9956 24.4248 53.3247L24.6477 54.2995ZM29.0031 53.3786L29.1984 54.3594C32.426 53.7168 35.5294 53.1449 37.52 52.6111L37.2609 51.6452L37.0019 50.6794C35.0952 51.1907 32.1021 51.7421 28.8079 52.3979L29.0031 53.3786ZM37.2609 51.6452L37.9164 52.4004C38.0175 52.3127 38.1362 52.2217 38.2593 52.1324L37.6721 51.323L37.0848 50.5135C36.9389 50.6195 36.7683 50.7486 36.6055 50.89L37.2609 51.6452ZM37.6721 51.323L38.2593 52.1324C38.4902 51.9649 38.7811 51.7703 39.1111 51.555L38.5646 50.7175L38.0182 49.88C37.6833 50.0985 37.3579 50.3154 37.0849 50.5135L37.6721 51.323ZM38.5646 50.7175L39.1111 51.555C39.7707 51.1246 40.5819 50.6154 41.3855 50.0818L40.8322 49.2487L40.279 48.4157C39.4705 48.9527 38.733 49.4136 38.0182 49.88L38.5646 50.7175ZM40.8322 49.2487L41.3855 50.0818C42.1879 49.5489 42.9821 48.992 43.6004 48.4672L42.9533 47.7048L42.3062 46.9424C41.7814 47.3878 41.0681 47.8917 40.279 48.4157L40.8322 49.2487ZM42.9533 47.7048L43.6004 48.4672C43.9104 48.2041 44.1748 47.9497 44.375 47.7116L43.6096 47.0681L42.8442 46.4245C42.7417 46.5464 42.5678 46.7203 42.3062 46.9424L42.9533 47.7048ZM43.6096 47.0681L44.375 47.7116C44.4714 47.5969 44.5438 47.4968 44.5985 47.4102C44.626 47.3668 44.6488 47.327 44.6679 47.2908C44.6775 47.2727 44.6858 47.2561 44.693 47.2411C44.6966 47.2336 44.6997 47.227 44.7023 47.2214C44.7047 47.2162 44.7069 47.2112 44.7065 47.2121L43.7951 46.8005L42.8837 46.3889C42.883 46.3906 42.886 46.3838 42.8897 46.3762C42.8931 46.369 42.8964 46.3625 42.8993 46.357C42.9052 46.3459 42.9085 46.3407 42.9079 46.3416C42.9066 46.3437 42.889 46.3712 42.8441 46.4246L43.6096 47.0681ZM43.7951 46.8005L44.7566 47.0752L44.7938 46.9453L43.8322 46.6706L42.8707 46.3959L42.8336 46.5258L43.7951 46.8005ZM43.8322 46.6706L44.7832 46.9798C44.8065 46.9081 44.8326 46.8573 44.8583 46.8236L44.0637 46.2165L43.269 45.6094C43.0628 45.8794 42.9482 46.1554 42.8812 46.3614L43.8322 46.6706ZM44.0637 46.2165L44.8582 46.8238C44.8754 46.8013 44.898 46.781 44.9205 46.768C44.9389 46.7574 44.959 46.7501 44.9889 46.749L44.9523 45.7497L44.9157 44.7504C44.1433 44.7787 43.5848 45.1963 43.2692 45.6092L44.0637 46.2165Z" fill="#FF7724"/>
<path d="M17.2637 146.548C17.4304 132.215 17.1637 122.048 18.7637 116.048C20.3637 110.048 21.7637 82.2147 21.7637 81.5481" stroke="#FF7724" stroke-width="2" stroke-linejoin="round"/>
<path d="M40.7894 14.3072C39.9901 16.5091 39.7903 21.8304 39.7903 24.2158C38.7912 25.3168 37.0785 26.4178 36.7931 19.812C36.2935 8.25193 42.288 1.0957 45.7848 1.0957C49.2816 1.0957 50.7802 2.54808 52.7784 2.54808C54.7766 2.54808 55.2761 0.54522 60.7711 1.0957C66.266 1.64618 68.7637 9.90337 68.7637 18.711C68.7637 25.7572 67.0986 25.3168 66.266 24.2158C65.933 21.4634 65.2669 15.6284 65.2669 14.3072C65.2669 12.6558 62.2697 8.25193 59.2724 8.25193C56.2752 8.25193 53.7614 10.0481 51.2637 10.0481C48.766 10.0481 49.2816 8.25193 46.7839 8.25193C44.2862 8.25193 41.7885 11.5548 40.7894 14.3072Z" fill="#D9D9D9" stroke="#FF7724" stroke-width="2" stroke-linejoin="round"/>
<path d="M53.7637 26.0481C54.4304 27.0481 55.3637 29.3481 53.7637 30.5481" stroke="#FF7724" stroke-width="2" stroke-linecap="round" stroke-linejoin="round"/>
<path d="M49.7637 34.0481C50.9304 35.5481 53.8637 37.6481 56.2637 34.0481" stroke="#FF7724" stroke-width="2" stroke-linecap="round" stroke-linejoin="round"/>
<path d="M44.0781 20C45.155 19.2453 47.8627 18.1889 50.0781 20" stroke="#FF7724" stroke-width="2" stroke-linecap="round" stroke-linejoin="round"/>
<path d="M56.0781 20C57.155 19.2453 59.8627 18.1889 62.0781 20" stroke="#FF7724" stroke-width="2" stroke-linecap="round" stroke-linejoin="round"/>
<path d="M47.0781 22V20" stroke="#FF7724" stroke-width="3" stroke-linecap="round"/>
<path d="M59.0781 22V20" stroke="#FF7724" stroke-width="3" stroke-linecap="round"/>
</svg>
