<svg width="97" height="72" viewBox="0 0 97 72" fill="none" xmlns="http://www.w3.org/2000/svg">
<path d="M44.6618 16.4547C42.8687 15.2335 39.7282 15.3119 35.4303 17.6535C31.2192 19.9478 26.5048 24.1412 22.4467 29.7783C18.3885 35.4155 15.9497 41.1587 15.1734 45.7923C14.3811 50.5214 15.3795 53.4186 17.1726 54.6398C18.9656 55.861 22.1061 55.7826 26.404 53.441C30.6151 51.1467 35.3295 46.9533 39.3877 41.3162C43.4458 35.679 45.8846 29.9358 46.6609 25.3022C47.4532 20.5731 46.4548 17.6759 44.6618 16.4547ZM48.6361 10.9339C52.8267 13.788 53.7239 19.4722 52.7437 25.3228C51.7475 31.269 48.7456 38.1042 44.1154 44.536C39.4851 50.9679 33.9083 56.0493 28.5044 58.9936C23.1872 61.8905 17.3888 63.0146 13.1982 60.1605C9.00763 57.3065 8.11042 51.6223 9.09062 45.7717C10.0868 39.8254 13.0887 32.9903 17.7189 26.5585C22.3492 20.1266 27.926 15.0452 33.33 12.1009C38.6471 9.20396 44.4455 8.0799 48.6361 10.9339Z" fill="white" stroke="#FF7724" stroke-width="2" stroke-linecap="round" stroke-linejoin="round"/>
<path d="M83.5168 37.742C82.6342 35.2472 79.9241 32.4593 74.8195 30.6021C69.8805 28.8051 63.5279 28.2493 57.0281 29.5684C50.5283 30.8875 45.3938 33.7746 42.3027 37.2012C39.108 40.7427 38.6015 44.1834 39.4841 46.6782C40.3668 49.1731 43.0768 51.961 48.1814 53.8182C53.1205 55.6151 59.473 56.171 65.9728 54.8519C72.4726 53.5328 77.6071 50.6457 80.6982 47.2191C83.8929 43.6776 84.3994 40.2369 83.5168 37.742ZM89.1984 36.589C91.4751 43.0243 89.2773 48.7977 85.5458 52.9342C81.7108 57.1856 75.6974 60.4408 68.469 61.9077C61.2406 63.3747 53.8839 62.833 47.7561 60.6035C41.7938 58.4342 36.0792 54.2666 33.8025 47.8313C31.5258 41.396 33.7237 35.6226 37.4551 31.486C41.2901 27.2346 47.3036 23.9795 54.532 22.5126C61.7603 21.0456 69.117 21.5873 75.2448 23.8168C81.2071 25.9861 86.9218 30.1537 89.1984 36.589Z" fill="white" stroke="#FF7724" stroke-width="2" stroke-linecap="round" stroke-linejoin="round"/>
<mask id="mask0_74_7308" style="mask-type:luminance" maskUnits="userSpaceOnUse" x="33" y="16" width="25" height="25">
<path d="M45.5443 17.8912C51.5991 17.8915 56.5111 22.8111 56.5111 28.8844C56.5111 34.9577 51.5992 39.8773 45.5443 39.8776C39.4893 39.8776 34.5765 34.9578 34.5765 28.8844C34.5766 22.811 39.4893 17.8912 45.5443 17.8912Z" fill="white" stroke="white" stroke-width="2"/>
</mask>
<g mask="url(#mask0_74_7308)">
<path d="M44.6618 16.4547C42.8687 15.2335 39.7282 15.3119 35.4303 17.6535C31.2192 19.9478 26.5048 24.1412 22.4467 29.7783C18.3885 35.4155 15.9497 41.1587 15.1734 45.7923C14.3811 50.5214 15.3795 53.4186 17.1726 54.6398C18.9656 55.861 22.1061 55.7826 26.404 53.441C30.6151 51.1467 35.3295 46.9533 39.3877 41.3162C43.4458 35.679 45.8846 29.9358 46.6609 25.3022C47.4532 20.5731 46.4548 17.6759 44.6618 16.4547ZM48.6361 10.9339C52.8267 13.788 53.7239 19.4722 52.7437 25.3228C51.7475 31.269 48.7456 38.1042 44.1154 44.536C39.4851 50.9679 33.9083 56.0493 28.5044 58.9936C23.1872 61.8905 17.3888 63.0146 13.1982 60.1605C9.00763 57.3065 8.11042 51.6223 9.09062 45.7717C10.0868 39.8254 13.0887 32.9903 17.7189 26.5585C22.3492 20.1266 27.926 15.0452 33.33 12.1009C38.6471 9.20396 44.4455 8.0799 48.6361 10.9339Z" fill="white" stroke="#FF7724" stroke-width="2" stroke-linecap="round" stroke-linejoin="round"/>
</g>
<path d="M70.1864 24.9837C70.0951 24.9628 70.038 24.8717 70.059 24.7802C70.0799 24.6887 70.1709 24.6315 70.2622 24.6524C72.9739 25.2729 76.1934 26.4218 79.1899 28.0695C79.272 28.1147 79.302 28.218 79.2568 28.3003C79.2117 28.3825 79.1086 28.4127 79.0265 28.3675C76.0592 26.7359 72.8694 25.5976 70.1864 24.9837Z" fill="black" stroke="#FF7724" stroke-linecap="round" stroke-linejoin="round"/>
<path d="M68.0149 7.02467C68.4952 5.60761 68.1524 4.29541 67.4444 3.74639C67.1035 3.48204 66.6457 3.36299 66.0645 3.50924C65.4705 3.65872 64.7364 4.09045 63.9002 4.95942C63.7929 5.07089 63.631 5.11024 63.4847 5.06044C63.3384 5.01063 63.2339 4.88061 63.2166 4.72673C63.0814 3.52712 62.7615 2.73661 62.3813 2.25552C62.0092 1.78478 61.5738 1.5998 61.1427 1.60138C60.2475 1.6047 59.1782 2.43622 58.6979 3.85328C58.1461 5.48156 58.5529 7.35138 59.2092 9.10779C59.5348 9.97905 59.9128 10.8004 60.2464 11.532C60.4696 12.0215 60.6785 12.484 60.8317 12.8884C61.199 12.6612 61.6457 12.4219 62.1202 12.1698C62.8294 11.7931 63.6284 11.3725 64.4161 10.8801C66.0041 9.88765 67.4631 8.65295 68.0149 7.02467ZM68.7704 7.28181C68.1248 9.1865 66.4575 10.5468 64.8383 11.5588C64.0225 12.0687 63.1977 12.5027 62.494 12.8765C61.776 13.2579 61.21 13.5638 60.8626 13.8313C60.7569 13.9128 60.6175 13.9359 60.4912 13.8929C60.3649 13.85 60.2685 13.7465 60.2341 13.6174C60.1212 13.1932 59.8582 12.6051 59.5205 11.8643C59.1895 11.1384 58.7991 10.2907 58.4619 9.38832C57.7927 7.5974 57.2969 5.50083 57.9425 3.59614C58.4885 1.98493 59.7854 0.806914 61.1399 0.801931C61.8337 0.79941 62.494 1.11079 63.0065 1.75915C63.4043 2.26242 63.7078 2.96086 63.8896 3.86568C64.5838 3.25903 65.249 2.89033 65.8703 2.73397C66.6708 2.53253 67.3838 2.68857 67.9325 3.11401C69.0037 3.9447 69.3165 5.6706 68.7704 7.28181Z" fill="black" stroke="#FF7724" stroke-linecap="round" stroke-linejoin="round"/>
</svg>
