<svg width="163" height="168" viewBox="0 0 163 168" fill="none" xmlns="http://www.w3.org/2000/svg">
<path d="M147.981 22.1906C136.418 11.1814 107.509 31.6445 95.92 48.4763C82.4129 64.9958 78.7076 56.3698 64.8693 35.3968C51.0311 14.4237 25.4045 16.9356 18.3437 35.8421C11.2828 54.7486 19.7977 100.259 48.9592 133.088C78.1208 165.916 87.3835 166.087 118.758 136.433C150.132 106.778 169.566 42.7413 147.981 22.1906Z" fill="#FF7724"/>
<path d="M49.3068 82.9219L49.4123 82.7812C49.2716 82.1719 49.0959 81.5742 48.8849 80.9883C48.6974 80.4023 48.463 79.8867 48.1818 79.4414C47.9005 78.9727 47.5607 78.6094 47.1623 78.3516C46.7873 78.0703 46.342 77.9297 45.8263 77.9297C45.2873 77.9297 44.7599 78.0586 44.2443 78.3164C43.7287 78.5508 43.2716 78.8672 42.8732 79.2656C42.5216 79.6875 42.3224 80.2266 42.2755 80.8828C42.2521 81.5391 42.2404 82.1484 42.2404 82.7109L42.5568 83.8008C42.6271 83.9648 42.674 84.1055 42.6974 84.2227C42.7443 84.3164 42.8966 84.5039 43.1545 84.7852C43.3185 84.9727 43.4474 85.1133 43.5412 85.207C43.6584 85.3008 43.7638 85.3711 43.8576 85.418C43.9748 85.4648 44.092 85.5117 44.2091 85.5586C44.3498 85.6055 44.549 85.6641 44.8068 85.7344H45.7912C46.1427 85.7109 46.4709 85.6055 46.7755 85.418C47.0802 85.2305 47.3615 85.0078 47.6193 84.75C47.9005 84.4688 48.1701 84.1758 48.4279 83.8711C48.7091 83.543 49.0021 83.2266 49.3068 82.9219ZM50.1154 86.4727C49.4591 87.2461 48.6857 87.7969 47.7951 88.125C46.9279 88.4297 46.0841 88.582 45.2638 88.582C44.2091 88.582 43.2365 88.3125 42.3459 87.7734C41.4787 87.2344 40.7287 86.4141 40.0959 85.3125C39.8615 84.9141 39.674 84.5039 39.5334 84.082C39.4162 83.6602 39.3576 83.25 39.3576 82.8516C39.3576 82.0312 39.4162 81.1758 39.5334 80.2852C39.674 79.3711 39.967 78.5391 40.4123 77.7891C40.881 77.0156 41.5373 76.3828 42.381 75.8906C43.2482 75.3984 44.4201 75.1523 45.8966 75.1523C46.9045 75.1523 47.7365 75.3164 48.3927 75.6445C49.0724 75.9492 49.6232 76.3477 50.0451 76.8398C50.4904 77.332 50.8302 77.8945 51.0646 78.5273C51.299 79.1367 51.5099 79.7461 51.6974 80.3555C52.4005 82.3945 52.8459 84.7031 53.0334 87.2812C53.2209 89.8594 53.3146 92.4844 53.3146 95.1562C53.3146 95.5312 53.1623 95.8477 52.8576 96.1055C52.5529 96.3633 52.2365 96.4922 51.9084 96.4922C51.5802 96.4922 51.2521 96.375 50.924 96.1406C50.6193 95.9297 50.467 95.5781 50.467 95.0859C50.467 93.7969 50.4552 92.4844 50.4318 91.1484C50.4084 89.8125 50.3263 88.4766 50.1857 87.1406L50.1154 86.4727ZM63.3229 89.3203C63.2057 89.2969 63.1002 89.2852 63.0065 89.2852C62.9596 89.2852 62.8424 89.4609 62.6549 89.8125C62.4674 90.1406 62.2448 90.5273 61.987 90.9727C61.7526 91.3945 61.5182 91.8281 61.2838 92.2734C61.0495 92.6953 60.8737 93 60.7565 93.1875C60.3815 93.6328 59.9596 93.8555 59.4909 93.8555C59.1393 93.8555 58.8346 93.7383 58.5768 93.5039C58.319 93.2461 58.1901 92.8828 58.1901 92.4141C58.1901 92.2266 58.2018 92.0742 58.2252 91.957C58.9987 90.5977 59.737 89.2617 60.4401 87.9492C61.1432 86.6367 61.8698 85.3359 62.6198 84.0469C63.3932 82.7578 64.2018 81.5039 65.0455 80.2852C65.8893 79.043 66.8385 77.8359 67.8932 76.6641C68.0573 76.4766 68.233 76.3594 68.4205 76.3125C68.608 76.2422 68.7838 76.1953 68.9479 76.1719C69.2995 76.1719 69.5924 76.3008 69.8268 76.5586C70.0846 76.8164 70.237 77.1328 70.2838 77.5078C70.2135 77.7656 70.1315 77.9414 70.0377 78.0352L70.319 77.8945C70.6237 77.8945 70.9401 77.9766 71.2682 78.1406C71.6198 78.3047 71.8659 78.6211 72.0065 79.0898C72.194 80.4023 72.4166 81.6797 72.6745 82.9219C72.9323 84.1406 73.1784 85.3711 73.4127 86.6133C73.6705 87.832 73.8932 89.0625 74.0807 90.3047C74.2916 91.5469 74.4205 92.8359 74.4674 94.1719C74.4674 94.6406 74.3268 95.0039 74.0455 95.2617C73.7643 95.4961 73.4596 95.6133 73.1315 95.6133C72.7799 95.6133 72.4401 95.5078 72.112 95.2969C71.8073 95.0859 71.6315 94.7227 71.5846 94.207C71.5377 92.5664 71.3971 91.0195 71.1627 89.5664C71.1159 89.6133 70.987 89.6484 70.776 89.6719C69.5104 89.6719 68.2448 89.6133 66.9791 89.4961C65.737 89.3789 64.5182 89.3203 63.3229 89.3203ZM64.5534 86.5078C65.3971 86.5547 66.3815 86.6133 67.5065 86.6836C68.6315 86.7539 69.6627 86.7891 70.6002 86.7891H70.6354L70.6002 86.6133C70.5299 86.3789 70.4479 86.0391 70.3541 85.5938C70.2604 85.1484 70.1549 84.668 70.0377 84.1523C69.944 83.6367 69.8385 83.1094 69.7213 82.5703C69.6276 82.0078 69.5338 81.5039 69.4401 81.0586C69.3463 80.6133 69.2643 80.25 69.194 79.9688C69.1471 79.6875 69.1237 79.5469 69.1237 79.5469C68.9127 79.7344 68.6198 80.0742 68.2448 80.5664C67.9166 80.9883 67.4948 81.6094 66.9791 82.4297C66.4635 83.2266 65.819 84.3164 65.0455 85.6992L64.5534 86.5078ZM87.5399 96.1406C87.4462 96.1406 87.3641 96.1523 87.2938 96.1758C86.6845 96.1758 86.122 96.0117 85.6063 95.6836C85.1141 95.3555 84.7509 94.957 84.5165 94.4883V94.4531C84.493 94.4531 84.4462 94.5117 84.3759 94.6289C83.8368 95.2852 83.2977 95.7539 82.7587 96.0352C82.2196 96.3164 81.5985 96.457 80.8954 96.457C79.9813 96.457 79.1024 96.3281 78.2587 96.0703C77.4149 95.8125 76.6766 95.4141 76.0438 94.875C75.411 94.3359 74.8954 93.668 74.497 92.8711C74.122 92.0508 73.9345 91.0898 73.9345 89.9883C73.9345 88.9102 74.0282 87.7852 74.2157 86.6133C74.4266 85.4414 74.579 84.3633 74.6727 83.3789C74.7899 82.9336 74.9891 82.6055 75.2704 82.3945C75.5751 82.1836 75.868 82.0781 76.1493 82.0781C76.5477 82.0781 76.8759 82.2188 77.1337 82.5C77.4149 82.7578 77.5555 83.1562 77.5555 83.6953C77.5087 84.0234 77.4384 84.4102 77.3446 84.8555C77.2743 85.2773 77.204 85.7461 77.1337 86.2617C77.0634 86.7539 76.993 87.2695 76.9227 87.8086C76.8759 88.3477 76.8524 88.875 76.8524 89.3906C76.8524 89.9062 76.9345 90.4219 77.0985 90.9375C77.2626 91.4531 77.4852 91.9219 77.7665 92.3438C78.0712 92.7422 78.411 93.0703 78.786 93.3281C79.161 93.5859 79.5595 93.7148 79.9813 93.7148C80.2626 93.7148 80.5555 93.6914 80.8602 93.6445C81.1649 93.5977 81.4579 93.4453 81.7391 93.1875C82.0438 92.9062 82.3251 92.4961 82.5829 91.957C82.8407 91.418 83.0399 90.6562 83.1805 89.6719C83.1571 89.2969 83.1337 88.957 83.1102 88.6523C83.1102 88.3477 83.1102 88.0664 83.1102 87.8086L83.0751 82.9219C83.1688 82.5234 83.3329 82.2188 83.5673 82.0078C83.8251 81.7969 84.1298 81.668 84.4813 81.6211C85.1845 81.6211 85.6766 82.043 85.9579 82.8867C85.9579 83.1445 85.9462 83.4141 85.9227 83.6953C85.9227 83.9531 85.9227 84.2109 85.9227 84.4688C85.9227 85.1719 85.9462 85.8633 85.993 86.543C86.0399 87.1992 86.0634 87.8672 86.0634 88.5469C86.0634 88.7812 86.0634 89.0156 86.0634 89.25C86.0634 89.4609 86.0516 89.6719 86.0282 89.8828C86.122 90.4453 86.2509 90.9844 86.4149 91.5C86.6024 92.0156 86.8251 92.4609 87.0829 92.8359C87.1532 92.8125 87.2704 92.8008 87.4345 92.8008C87.8095 92.8008 88.1259 92.9414 88.3837 93.2227C88.6649 93.5039 88.8055 93.9023 88.8055 94.418C88.7352 94.7695 88.6532 95.0391 88.5595 95.2266C88.4891 95.3906 88.3368 95.6016 88.1024 95.8594L87.5399 96.1406ZM94.3546 85.5586C93.9562 85.4648 93.5929 85.3477 93.2648 85.207C92.9601 85.0664 92.632 84.9961 92.2804 84.9961C91.9523 84.9961 91.6593 85.1016 91.4015 85.3125C91.1671 85.5 90.9562 85.7578 90.7687 86.0859C90.6046 86.4141 90.4757 86.7773 90.382 87.1758C90.2882 87.5742 90.2413 87.9844 90.2413 88.4062C90.2413 88.6641 90.2765 88.957 90.3468 89.2852C90.4171 89.5898 90.5109 89.8711 90.628 90.1289C90.7687 90.3867 90.9327 90.6094 91.1202 90.7969C91.3077 90.9609 91.5304 91.043 91.7882 91.043C92.2335 91.043 92.6202 90.9023 92.9484 90.6211C93.2999 90.3398 93.5812 89.9883 93.7921 89.5664C94.003 89.1445 94.1554 88.6875 94.2491 88.1953C94.3663 87.7031 94.4249 87.2461 94.4249 86.8242C94.4249 86.6133 94.4132 86.4141 94.3898 86.2266C94.3663 86.0156 94.3546 85.793 94.3546 85.5586ZM90.3116 104.051C89.7726 104.051 89.3976 103.875 89.1866 103.523C88.9757 103.195 88.8702 102.867 88.8702 102.539C88.8702 102.211 88.9874 101.906 89.2218 101.625C89.4796 101.344 89.8195 101.203 90.2413 101.203C91.2257 101.203 92.046 101.051 92.7023 100.746C93.3585 100.441 93.8859 100.031 94.2843 99.5156C94.7062 99 94.9991 98.3906 95.1632 97.6875C95.3273 97.0078 95.4093 96.2812 95.4093 95.5078C95.4093 94.9922 95.3859 94.4766 95.339 93.9609C95.3155 93.4453 95.2804 92.918 95.2335 92.3789C94.2491 93.3633 93.1124 93.8555 91.8234 93.8555C91.1202 93.8555 90.4991 93.7148 89.9601 93.4336C89.421 93.1289 88.964 92.7305 88.589 92.2383C88.214 91.7227 87.921 91.1367 87.7101 90.4805C87.5226 89.8242 87.4288 89.1445 87.4288 88.4414C87.4288 87.7617 87.5226 87.0469 87.7101 86.2969C87.921 85.5469 88.2257 84.8555 88.6241 84.2227C89.046 83.5898 89.5499 83.0742 90.1359 82.6758C90.7452 82.2539 91.4484 82.043 92.2452 82.043C92.6437 82.043 93.0655 82.1016 93.5109 82.2188C93.9562 82.3125 94.3663 82.4414 94.7413 82.6055C95.1398 82.7461 95.4796 82.9102 95.7609 83.0977C96.0421 83.2617 96.2179 83.4023 96.2882 83.5195C96.4288 83.7773 96.4991 84.0234 96.4991 84.2578L96.6749 84.3633C96.9093 84.5977 97.0968 84.9141 97.2374 85.3125C97.3077 86.1328 97.4015 86.9297 97.5187 87.7031C97.6593 88.4531 97.7882 89.2031 97.9054 89.9531C98.0226 90.6797 98.128 91.4297 98.2218 92.2031C98.3155 92.9531 98.3624 93.7383 98.3624 94.5586C98.3624 95.4961 98.2452 96.5156 98.0109 97.6172C97.7765 98.7422 97.3898 99.7734 96.8507 100.711C96.3351 101.672 95.6437 102.469 94.7765 103.102C93.9327 103.734 92.9015 104.051 91.6827 104.051H90.3116ZM111.013 96.1406C110.919 96.1406 110.837 96.1523 110.767 96.1758C110.158 96.1758 109.595 96.0117 109.079 95.6836C108.587 95.3555 108.224 94.957 107.99 94.4883V94.4531C107.966 94.4531 107.919 94.5117 107.849 94.6289C107.31 95.2852 106.771 95.7539 106.232 96.0352C105.693 96.3164 105.072 96.457 104.369 96.457C103.454 96.457 102.576 96.3281 101.732 96.0703C100.888 95.8125 100.15 95.4141 99.517 94.875C98.8841 94.3359 98.3685 93.668 97.9701 92.8711C97.5951 92.0508 97.4076 91.0898 97.4076 89.9883C97.4076 88.9102 97.5013 87.7852 97.6888 86.6133C97.8998 85.4414 98.0521 84.3633 98.1459 83.3789C98.263 82.9336 98.4623 82.6055 98.7435 82.3945C99.0482 82.1836 99.3412 82.0781 99.6224 82.0781C100.021 82.0781 100.349 82.2188 100.607 82.5C100.888 82.7578 101.029 83.1562 101.029 83.6953C100.982 84.0234 100.911 84.4102 100.818 84.8555C100.747 85.2773 100.677 85.7461 100.607 86.2617C100.536 86.7539 100.466 87.2695 100.396 87.8086C100.349 88.3477 100.326 88.875 100.326 89.3906C100.326 89.9062 100.408 90.4219 100.572 90.9375C100.736 91.4531 100.958 91.9219 101.24 92.3438C101.544 92.7422 101.884 93.0703 102.259 93.3281C102.634 93.5859 103.033 93.7148 103.454 93.7148C103.736 93.7148 104.029 93.6914 104.333 93.6445C104.638 93.5977 104.931 93.4453 105.212 93.1875C105.517 92.9062 105.798 92.4961 106.056 91.957C106.314 91.418 106.513 90.6562 106.654 89.6719C106.63 89.2969 106.607 88.957 106.583 88.6523C106.583 88.3477 106.583 88.0664 106.583 87.8086L106.548 82.9219C106.642 82.5234 106.806 82.2188 107.04 82.0078C107.298 81.7969 107.603 81.668 107.954 81.6211C108.658 81.6211 109.15 82.043 109.431 82.8867C109.431 83.1445 109.419 83.4141 109.396 83.6953C109.396 83.9531 109.396 84.2109 109.396 84.4688C109.396 85.1719 109.419 85.8633 109.466 86.543C109.513 87.1992 109.536 87.8672 109.536 88.5469C109.536 88.7812 109.536 89.0156 109.536 89.25C109.536 89.4609 109.525 89.6719 109.501 89.8828C109.595 90.4453 109.724 90.9844 109.888 91.5C110.076 92.0156 110.298 92.4609 110.556 92.8359C110.626 92.8125 110.744 92.8008 110.908 92.8008C111.283 92.8008 111.599 92.9414 111.857 93.2227C112.138 93.5039 112.279 93.9023 112.279 94.418C112.208 94.7695 112.126 95.0391 112.033 95.2266C111.962 95.3906 111.81 95.6016 111.576 95.8594L111.013 96.1406ZM119.796 81.3398C120.171 81.457 120.453 81.6562 120.64 81.9375C120.828 82.2188 120.921 82.5 120.921 82.7812C120.921 83.1797 120.781 83.5195 120.5 83.8008C120.218 84.0586 119.879 84.1875 119.48 84.1875C119.363 84.1875 119.269 84.1758 119.199 84.1523C118.707 84.0117 118.25 83.9062 117.828 83.8359C117.406 83.7422 116.996 83.6953 116.597 83.6953C116.246 83.6953 115.894 83.7305 115.543 83.8008C115.191 83.8711 114.816 83.9648 114.418 84.082L114.382 84.1172C114.734 84.7969 115.214 85.3945 115.824 85.9102C116.433 86.4258 117.066 86.9531 117.722 87.4922C118.379 88.0078 119 88.5586 119.586 89.1445C120.195 89.7305 120.64 90.4102 120.921 91.1836C121.039 91.4883 121.097 91.8047 121.097 92.1328C121.097 92.625 121.004 93.1406 120.816 93.6797C120.629 94.2188 120.347 94.7109 119.972 95.1562C119.621 95.6016 119.164 95.9648 118.601 96.2461C118.039 96.5508 117.371 96.7031 116.597 96.7031C115.73 96.7031 114.933 96.5625 114.207 96.2812C113.504 96.0234 112.882 95.6719 112.343 95.2266L111.675 94.8047L111.359 94.4883C111.007 94.1836 110.82 93.8086 110.796 93.3633V93.1523C110.867 92.707 111.019 92.3906 111.254 92.2031C111.511 91.9922 111.816 91.8633 112.168 91.8164C112.636 91.8164 113.07 92.0625 113.468 92.5547L114.312 93.0117C114.64 93.1992 115.004 93.3867 115.402 93.5742C115.824 93.7617 116.234 93.8555 116.632 93.8555C116.961 93.8555 117.277 93.7617 117.582 93.5742L117.793 93.3984C117.863 93.1875 117.921 92.9766 117.968 92.7656C118.039 92.5547 118.074 92.3555 118.074 92.168C118.074 91.8164 117.992 91.5234 117.828 91.2891C117.687 91.0312 117.488 90.8086 117.23 90.6211C116.996 90.4102 116.738 90.2227 116.457 90.0586C116.175 89.8711 115.894 89.6719 115.613 89.4609C115.355 89.2734 114.992 88.9805 114.523 88.582C114.078 88.1602 113.621 87.6914 113.152 87.1758C112.683 86.6602 112.273 86.1211 111.921 85.5586C111.593 84.9727 111.429 84.4336 111.429 83.9414C111.429 83.3555 111.605 82.8633 111.957 82.4648C112.308 82.043 112.742 81.7148 113.257 81.4805C113.773 81.2227 114.312 81.0469 114.875 80.9531C115.437 80.8359 115.918 80.7773 116.316 80.7773C116.972 80.7773 117.558 80.8242 118.074 80.918C118.613 81.0117 119.187 81.1523 119.796 81.3398ZM130.9 92.8711C131.205 92.5195 131.463 92.2969 131.674 92.2031C131.908 92.0859 132.154 92.0273 132.412 92.0273C132.81 92.0273 133.103 92.1914 133.291 92.5195C133.502 92.8477 133.607 93.2227 133.607 93.6445C133.49 94.0898 133.291 94.4648 133.01 94.7695C132.752 95.0742 132.435 95.3203 132.06 95.5078C131.685 95.6953 131.275 95.8359 130.83 95.9297C130.385 96 129.939 96.0352 129.494 96.0352C129.025 96.0117 128.556 95.9414 128.088 95.8242C127.642 95.707 127.221 95.5547 126.822 95.3672C126.424 95.1562 126.072 94.9219 125.767 94.6641C125.486 94.3828 125.287 94.0664 125.17 93.7148C124.631 92.3789 124.267 91.0078 124.08 89.6016C123.892 88.1719 123.799 86.7891 123.799 85.4531V84.5742L121.619 84.8906C121.15 84.8438 120.787 84.6797 120.529 84.3984C120.295 84.1172 120.178 83.7773 120.178 83.3789C120.178 83.1211 120.271 82.8633 120.459 82.6055C120.646 82.3242 120.928 82.125 121.303 82.0078L123.869 81.6914C123.869 80.8711 123.892 80.0625 123.939 79.2656C124.01 78.4453 124.056 77.625 124.08 76.8047C124.338 75.9844 124.806 75.5273 125.486 75.4336C126.166 75.4336 126.658 75.8672 126.963 76.7344C126.916 77.6719 126.846 78.8438 126.752 80.25L126.681 81.2344C127.291 81.1406 127.924 81.0703 128.58 81.0234C129.236 80.9766 129.928 80.9531 130.654 80.9531C131.498 81.2578 131.92 81.7266 131.92 82.3594C131.873 82.6875 131.744 82.9922 131.533 83.2734C131.322 83.5312 131.006 83.707 130.584 83.8008C129.201 83.8008 127.877 83.9062 126.611 84.1172V85.0312C126.611 85.7812 126.635 86.5312 126.681 87.2812C126.728 88.0078 126.787 88.7109 126.857 89.3906C126.951 90.0469 127.068 90.6562 127.209 91.2188C127.349 91.7578 127.514 92.2031 127.701 92.5547C128.006 92.6953 128.357 92.8359 128.756 92.9766C129.154 93.0938 129.541 93.1523 129.916 93.1523C130.127 93.1523 130.408 93.0938 130.76 92.9766L130.9 92.8711Z" fill="white"/>
</svg>
